<svg width="147" height="38" viewBox="0 0 147 38" fill="none" xmlns="http://www.w3.org/2000/svg">
<path d="M52.21 7.646C52.21 7.04867 52.1167 6.54 51.93 6.12C51.7527 5.69067 51.5053 5.34067 51.188 5.07C50.88 4.79933 50.516 4.60333 50.096 4.482C49.6853 4.35133 49.242 4.286 48.766 4.286C48.4673 4.286 48.206 4.29533 47.982 4.314C47.7673 4.33267 47.5667 4.36067 47.38 4.398V11.062C47.604 11.118 47.842 11.1553 48.094 11.174C48.3553 11.1927 48.6213 11.202 48.892 11.202C49.9933 11.202 50.8193 10.9033 51.37 10.306C51.93 9.70867 52.21 8.822 52.21 7.646ZM53.372 7.646C53.372 8.41133 53.2647 9.07867 53.05 9.648C52.8447 10.208 52.546 10.6747 52.154 11.048C51.7713 11.4213 51.3047 11.7013 50.754 11.888C50.2033 12.0653 49.5873 12.154 48.906 12.154C48.6073 12.154 48.2713 12.14 47.898 12.112C47.5247 12.0933 47.17 12.0327 46.834 11.93C46.442 11.8087 46.246 11.594 46.246 11.286V4.09C46.246 3.94067 46.2833 3.82867 46.358 3.754C46.4327 3.67 46.5493 3.60467 46.708 3.558C46.9973 3.46467 47.324 3.404 47.688 3.376C48.052 3.348 48.416 3.334 48.78 3.334C49.4613 3.334 50.082 3.42733 50.642 3.614C51.2113 3.79133 51.6967 4.062 52.098 4.426C52.4993 4.78067 52.812 5.22867 53.036 5.77C53.26 6.302 53.372 6.92733 53.372 7.646ZM61.2162 8.766C61.2162 9.28867 61.1415 9.76 60.9922 10.18C60.8428 10.6 60.6282 10.9593 60.3482 11.258C60.0775 11.5567 59.7462 11.7853 59.3542 11.944C58.9622 12.1027 58.5235 12.182 58.0382 12.182C57.5528 12.182 57.1142 12.1027 56.7222 11.944C56.3302 11.7853 55.9942 11.5567 55.7142 11.258C55.4342 10.9593 55.2195 10.6 55.0702 10.18C54.9208 9.76 54.8462 9.28867 54.8462 8.766C54.8462 8.24333 54.9208 7.772 55.0702 7.352C55.2288 6.932 55.4482 6.57267 55.7282 6.274C56.0082 5.97533 56.3442 5.74667 56.7362 5.588C57.1282 5.42933 57.5622 5.35 58.0382 5.35C58.5142 5.35 58.9482 5.42933 59.3402 5.588C59.7322 5.74667 60.0635 5.97533 60.3342 6.274C60.6142 6.57267 60.8288 6.932 60.9782 7.352C61.1368 7.772 61.2162 8.24333 61.2162 8.766ZM58.0382 6.274C57.4035 6.274 56.9042 6.49333 56.5402 6.932C56.1762 7.37067 55.9942 7.982 55.9942 8.766C55.9942 9.55933 56.1715 10.1753 56.5262 10.614C56.8902 11.0433 57.3942 11.258 58.0382 11.258C58.6822 11.258 59.1815 11.0387 59.5362 10.6C59.8908 10.1613 60.0682 9.55 60.0682 8.766C60.0682 7.982 59.8862 7.37067 59.5222 6.932C59.1675 6.49333 58.6728 6.274 58.0382 6.274ZM66.9404 7.184C66.8097 7.62267 66.6744 8.066 66.5344 8.514C66.4037 8.962 66.2684 9.39133 66.1284 9.802C65.9884 10.2127 65.8531 10.6 65.7224 10.964C65.5917 11.328 65.4704 11.65 65.3584 11.93C65.2837 11.9767 65.1997 12.014 65.1064 12.042C65.0131 12.07 64.8871 12.084 64.7284 12.084C64.5791 12.084 64.4391 12.056 64.3084 12C64.1871 11.9533 64.1031 11.874 64.0564 11.762C63.9444 11.5287 63.8091 11.1647 63.6504 10.67C63.5011 10.1753 63.3424 9.634 63.1744 9.046C63.0157 8.44867 62.8617 7.85133 62.7124 7.254C62.5724 6.64733 62.4557 6.12 62.3624 5.672C62.4277 5.60667 62.5071 5.546 62.6004 5.49C62.7031 5.434 62.8244 5.406 62.9644 5.406C63.1417 5.406 63.2724 5.45733 63.3564 5.56C63.4404 5.65333 63.5057 5.80733 63.5524 6.022C63.6364 6.414 63.7344 6.862 63.8464 7.366C63.9584 7.86067 64.0704 8.346 64.1824 8.822C64.2944 9.298 64.3971 9.732 64.4904 10.124C64.5931 10.516 64.6677 10.8053 64.7144 10.992H64.7704C64.8264 10.824 64.9057 10.572 65.0084 10.236C65.1204 9.9 65.2464 9.51733 65.3864 9.088C65.5264 8.64933 65.6804 8.178 65.8484 7.674C66.0164 7.17 66.1844 6.666 66.3524 6.162C66.5204 6.06867 66.7211 6.022 66.9544 6.022C67.2997 6.022 67.5144 6.14333 67.5984 6.386C67.7664 6.87133 67.9251 7.35667 68.0744 7.842C68.2331 8.318 68.3777 8.76133 68.5084 9.172C68.6391 9.58267 68.7511 9.95133 68.8444 10.278C68.9377 10.5953 69.0124 10.838 69.0684 11.006H69.1384C69.3531 10.166 69.5864 9.27467 69.8384 8.332C70.0904 7.38933 70.2957 6.456 70.4544 5.532C70.5851 5.448 70.7437 5.406 70.9304 5.406C71.0891 5.406 71.2151 5.44333 71.3084 5.518C71.4017 5.59267 71.4484 5.70933 71.4484 5.868C71.4484 5.97067 71.4157 6.17133 71.3504 6.47C71.2944 6.75933 71.2151 7.1 71.1124 7.492C71.0097 7.87467 70.8931 8.29 70.7624 8.738C70.6411 9.17667 70.5151 9.606 70.3844 10.026C70.2537 10.4367 70.1277 10.8147 70.0064 11.16C69.8944 11.496 69.7964 11.7527 69.7124 11.93C69.6657 11.9673 69.5864 12 69.4744 12.028C69.3717 12.0653 69.2504 12.084 69.1104 12.084C68.9331 12.084 68.7837 12.0607 68.6624 12.014C68.5504 11.9767 68.4757 11.9113 68.4384 11.818C68.3357 11.566 68.2237 11.2673 68.1024 10.922C67.9904 10.5767 67.8691 10.2033 67.7384 9.802C67.6077 9.39133 67.4724 8.962 67.3324 8.514C67.2017 8.066 67.0711 7.62267 66.9404 7.184ZM77.5456 7.786C77.5456 7.26333 77.3963 6.88067 77.0976 6.638C76.8083 6.39533 76.4163 6.274 75.9216 6.274C75.5483 6.274 75.217 6.32067 74.9276 6.414C74.6383 6.50733 74.391 6.61467 74.1856 6.736V11.972C74.139 11.9907 74.069 12.0093 73.9756 12.028C73.8823 12.056 73.7796 12.07 73.6676 12.07C73.2663 12.07 73.0656 11.902 73.0656 11.566V6.792C73.0656 6.596 73.103 6.43733 73.1776 6.316C73.2616 6.18533 73.4016 6.05933 73.5976 5.938C73.8403 5.78867 74.1623 5.65333 74.5636 5.532C74.965 5.41067 75.4176 5.35 75.9216 5.35C76.771 5.35 77.4383 5.54133 77.9236 5.924C78.4183 6.30667 78.6656 6.90867 78.6656 7.73V11.972C78.619 11.9907 78.5443 12.0093 78.4416 12.028C78.3483 12.056 78.2503 12.07 78.1476 12.07C77.7463 12.07 77.5456 11.902 77.5456 11.566V7.786ZM81.9949 11.972C81.9482 11.9907 81.8782 12.0093 81.7849 12.028C81.6916 12.056 81.5889 12.07 81.4769 12.07C81.0756 12.07 80.8749 11.902 80.8749 11.566V2.928C80.9216 2.90933 80.9916 2.89067 81.0849 2.872C81.1876 2.844 81.2902 2.83 81.3929 2.83C81.7942 2.83 81.9949 2.998 81.9949 3.334V11.972ZM90.2142 8.766C90.2142 9.28867 90.1395 9.76 89.9902 10.18C89.8409 10.6 89.6262 10.9593 89.3462 11.258C89.0755 11.5567 88.7442 11.7853 88.3522 11.944C87.9602 12.1027 87.5215 12.182 87.0362 12.182C86.5509 12.182 86.1122 12.1027 85.7202 11.944C85.3282 11.7853 84.9922 11.5567 84.7122 11.258C84.4322 10.9593 84.2175 10.6 84.0682 10.18C83.9189 9.76 83.8442 9.28867 83.8442 8.766C83.8442 8.24333 83.9189 7.772 84.0682 7.352C84.2269 6.932 84.4462 6.57267 84.7262 6.274C85.0062 5.97533 85.3422 5.74667 85.7342 5.588C86.1262 5.42933 86.5602 5.35 87.0362 5.35C87.5122 5.35 87.9462 5.42933 88.3382 5.588C88.7302 5.74667 89.0615 5.97533 89.3322 6.274C89.6122 6.57267 89.8269 6.932 89.9762 7.352C90.1349 7.772 90.2142 8.24333 90.2142 8.766ZM87.0362 6.274C86.4015 6.274 85.9022 6.49333 85.5382 6.932C85.1742 7.37067 84.9922 7.982 84.9922 8.766C84.9922 9.55933 85.1695 10.1753 85.5242 10.614C85.8882 11.0433 86.3922 11.258 87.0362 11.258C87.6802 11.258 88.1795 11.0387 88.5342 10.6C88.8889 10.1613 89.0662 9.55 89.0662 8.766C89.0662 7.982 88.8842 7.37067 88.5202 6.932C88.1655 6.49333 87.6709 6.274 87.0362 6.274ZM94.2838 11.272C94.6758 11.272 94.9978 11.2347 95.2498 11.16C95.5112 11.076 95.6978 10.9967 95.8098 10.922V8.892L94.0738 9.074C93.5885 9.12067 93.2292 9.23267 92.9958 9.41C92.7625 9.578 92.6458 9.83 92.6458 10.166C92.6458 10.5207 92.7812 10.796 93.0518 10.992C93.3225 11.1787 93.7332 11.272 94.2838 11.272ZM94.2698 5.35C95.0818 5.35 95.7258 5.532 96.2018 5.896C96.6778 6.26 96.9158 6.834 96.9158 7.618V10.936C96.9158 11.1413 96.8738 11.3 96.7898 11.412C96.7152 11.5147 96.5985 11.6127 96.4398 11.706C96.2158 11.8367 95.9172 11.9487 95.5438 12.042C95.1798 12.1447 94.7598 12.196 94.2838 12.196C93.4065 12.196 92.7252 12.0233 92.2398 11.678C91.7638 11.3327 91.5258 10.8333 91.5258 10.18C91.5258 9.564 91.7265 9.102 92.1278 8.794C92.5292 8.47667 93.0938 8.28067 93.8218 8.206L95.8098 8.01V7.618C95.8098 7.15133 95.6698 6.81067 95.3898 6.596C95.1098 6.38133 94.7318 6.274 94.2558 6.274C93.8638 6.274 93.4952 6.33 93.1498 6.442C92.8045 6.554 92.4965 6.68 92.2258 6.82C92.1512 6.75467 92.0812 6.68 92.0158 6.596C91.9598 6.512 91.9318 6.41867 91.9318 6.316C91.9318 6.18533 91.9645 6.078 92.0298 5.994C92.0952 5.91 92.1978 5.83067 92.3378 5.756C92.5898 5.62533 92.8792 5.52733 93.2058 5.462C93.5325 5.38733 93.8872 5.35 94.2698 5.35ZM104.49 10.936C104.49 11.1227 104.448 11.2673 104.364 11.37C104.289 11.4727 104.168 11.5753 104 11.678C103.813 11.7993 103.547 11.9113 103.202 12.014C102.857 12.126 102.46 12.182 102.012 12.182C101.508 12.182 101.046 12.1167 100.626 11.986C100.206 11.8553 99.8422 11.6547 99.5342 11.384C99.2355 11.104 99.0022 10.754 98.8342 10.334C98.6755 9.90467 98.5962 9.39133 98.5962 8.794C98.5962 8.18733 98.6802 7.66933 98.8482 7.24C99.0162 6.80133 99.2402 6.442 99.5202 6.162C99.8095 5.882 100.145 5.67667 100.528 5.546C100.92 5.41533 101.335 5.35 101.774 5.35C102.073 5.35 102.362 5.38733 102.642 5.462C102.922 5.53667 103.165 5.63 103.37 5.742V2.928C103.417 2.90933 103.487 2.89067 103.58 2.872C103.683 2.844 103.785 2.83 103.888 2.83C104.289 2.83 104.49 2.998 104.49 3.334V10.936ZM103.37 6.75C103.183 6.61933 102.969 6.50733 102.726 6.414C102.483 6.32067 102.203 6.274 101.886 6.274C101.597 6.274 101.321 6.32067 101.06 6.414C100.808 6.498 100.584 6.64267 100.388 6.848C100.192 7.044 100.033 7.30533 99.9122 7.632C99.8002 7.95867 99.7442 8.35533 99.7442 8.822C99.7442 9.68067 99.9495 10.3013 100.36 10.684C100.771 11.0667 101.317 11.258 101.998 11.258C102.325 11.258 102.591 11.2253 102.796 11.16C103.011 11.0853 103.202 10.9967 103.37 10.894V6.75ZM115.425 8.766C115.425 9.28867 115.35 9.76 115.201 10.18C115.052 10.6 114.837 10.9593 114.557 11.258C114.286 11.5567 113.955 11.7853 113.563 11.944C113.171 12.1027 112.732 12.182 112.247 12.182C111.762 12.182 111.323 12.1027 110.931 11.944C110.539 11.7853 110.203 11.5567 109.923 11.258C109.643 10.9593 109.428 10.6 109.279 10.18C109.13 9.76 109.055 9.28867 109.055 8.766C109.055 8.24333 109.13 7.772 109.279 7.352C109.438 6.932 109.657 6.57267 109.937 6.274C110.217 5.97533 110.553 5.74667 110.945 5.588C111.337 5.42933 111.771 5.35 112.247 5.35C112.723 5.35 113.157 5.42933 113.549 5.588C113.941 5.74667 114.272 5.97533 114.543 6.274C114.823 6.57267 115.038 6.932 115.187 7.352C115.346 7.772 115.425 8.24333 115.425 8.766ZM112.247 6.274C111.612 6.274 111.113 6.49333 110.749 6.932C110.385 7.37067 110.203 7.982 110.203 8.766C110.203 9.55933 110.38 10.1753 110.735 10.614C111.099 11.0433 111.603 11.258 112.247 11.258C112.891 11.258 113.39 11.0387 113.745 10.6C114.1 10.1613 114.277 9.55 114.277 8.766C114.277 7.982 114.095 7.37067 113.731 6.932C113.376 6.49333 112.882 6.274 112.247 6.274ZM121.637 7.786C121.637 7.26333 121.488 6.88067 121.189 6.638C120.9 6.39533 120.508 6.274 120.013 6.274C119.64 6.274 119.309 6.32067 119.019 6.414C118.73 6.50733 118.483 6.61467 118.277 6.736V11.972C118.231 11.9907 118.161 12.0093 118.067 12.028C117.974 12.056 117.871 12.07 117.759 12.07C117.358 12.07 117.157 11.902 117.157 11.566V6.792C117.157 6.596 117.195 6.43733 117.269 6.316C117.353 6.18533 117.493 6.05933 117.689 5.938C117.932 5.78867 118.254 5.65333 118.655 5.532C119.057 5.41067 119.509 5.35 120.013 5.35C120.863 5.35 121.53 5.54133 122.015 5.924C122.51 6.30667 122.757 6.90867 122.757 7.73V11.972C122.711 11.9907 122.636 12.0093 122.533 12.028C122.44 12.056 122.342 12.07 122.239 12.07C121.838 12.07 121.637 11.902 121.637 11.566V7.786ZM129.869 12.182C129.216 12.182 128.684 12.0373 128.273 11.748C127.872 11.4587 127.671 10.978 127.671 10.306V3.656C127.718 3.63733 127.788 3.61867 127.881 3.6C127.984 3.572 128.091 3.558 128.203 3.558C128.595 3.558 128.791 3.726 128.791 4.062V5.672H131.087C131.115 5.71867 131.143 5.784 131.171 5.868C131.199 5.94267 131.213 6.02667 131.213 6.12C131.213 6.43733 131.073 6.596 130.793 6.596H128.791V10.236C128.791 10.6093 128.894 10.8753 129.099 11.034C129.314 11.1833 129.613 11.258 129.995 11.258C130.154 11.258 130.331 11.23 130.527 11.174C130.723 11.118 130.887 11.0527 131.017 10.978C131.073 11.034 131.125 11.104 131.171 11.188C131.218 11.272 131.241 11.37 131.241 11.482C131.241 11.6873 131.12 11.8553 130.877 11.986C130.635 12.1167 130.299 12.182 129.869 12.182ZM134.014 11.972C133.968 11.9907 133.898 12.0093 133.804 12.028C133.711 12.056 133.608 12.07 133.496 12.07C133.095 12.07 132.894 11.902 132.894 11.566V2.928C132.941 2.90933 133.011 2.89067 133.104 2.872C133.207 2.844 133.314 2.83 133.426 2.83C133.818 2.83 134.014 2.998 134.014 3.334V5.854C134.238 5.72333 134.5 5.60667 134.798 5.504C135.106 5.40133 135.452 5.35 135.834 5.35C136.226 5.35 136.581 5.40133 136.898 5.504C137.225 5.60667 137.505 5.76533 137.738 5.98C137.972 6.18533 138.154 6.45133 138.284 6.778C138.415 7.09533 138.48 7.46867 138.48 7.898V11.972C138.434 11.9907 138.359 12.0093 138.256 12.028C138.163 12.056 138.065 12.07 137.962 12.07C137.561 12.07 137.36 11.902 137.36 11.566V7.926C137.36 7.366 137.206 6.95067 136.898 6.68C136.59 6.40933 136.184 6.274 135.68 6.274C135.354 6.274 135.046 6.33467 134.756 6.456C134.476 6.568 134.229 6.708 134.014 6.876V11.972ZM141.375 9.424C141.627 10.6467 142.43 11.258 143.783 11.258C144.175 11.258 144.53 11.1927 144.847 11.062C145.165 10.9313 145.417 10.7913 145.603 10.642C145.827 10.7727 145.939 10.95 145.939 11.174C145.939 11.3047 145.879 11.4307 145.757 11.552C145.645 11.6733 145.487 11.7807 145.281 11.874C145.085 11.9673 144.852 12.042 144.581 12.098C144.32 12.154 144.035 12.182 143.727 12.182C142.645 12.182 141.786 11.888 141.151 11.3C140.526 10.712 140.213 9.85333 140.213 8.724C140.213 8.192 140.288 7.72067 140.437 7.31C140.596 6.89 140.811 6.53533 141.081 6.246C141.361 5.95667 141.693 5.73733 142.075 5.588C142.458 5.42933 142.873 5.35 143.321 5.35C143.741 5.35 144.129 5.42 144.483 5.56C144.838 5.7 145.141 5.90067 145.393 6.162C145.655 6.414 145.855 6.71733 145.995 7.072C146.145 7.41733 146.219 7.8 146.219 8.22C146.219 8.42533 146.173 8.57467 146.079 8.668C145.986 8.752 145.855 8.80333 145.687 8.822L141.375 9.424ZM143.307 6.26C142.738 6.26 142.267 6.46067 141.893 6.862C141.52 7.254 141.324 7.81867 141.305 8.556L145.155 8.024C145.109 7.51067 144.927 7.09067 144.609 6.764C144.301 6.428 143.867 6.26 143.307 6.26Z" fill="black"/>
<path d="M54.488 29.656C54.488 29.9227 54.4293 30.1307 54.312 30.28C54.2053 30.4187 54.0293 30.552 53.784 30.68C53.6453 30.7653 53.4693 30.8453 53.256 30.92C53.0533 30.984 52.824 31.0373 52.568 31.08C52.3227 31.1333 52.0667 31.176 51.8 31.208C51.5333 31.24 51.2667 31.256 51 31.256C50.2427 31.256 49.5387 31.16 48.888 30.968C48.248 30.7653 47.688 30.456 47.208 30.04C46.7387 29.624 46.3707 29.096 46.104 28.456C45.8373 27.816 45.704 27.0533 45.704 26.168C45.704 25.3253 45.8373 24.584 46.104 23.944C46.3813 23.2933 46.7547 22.7547 47.224 22.328C47.704 21.9013 48.2587 21.5813 48.888 21.368C49.5173 21.144 50.1947 21.032 50.92 21.032C51.4 21.032 51.832 21.0747 52.216 21.16C52.6107 21.2347 52.9467 21.3413 53.224 21.48C53.512 21.608 53.7307 21.768 53.88 21.96C54.0293 22.1413 54.104 22.3333 54.104 22.536C54.104 22.7493 54.0453 22.936 53.928 23.096C53.8107 23.256 53.6773 23.3787 53.528 23.464C53.2507 23.2827 52.9147 23.1173 52.52 22.968C52.1253 22.808 51.64 22.728 51.064 22.728C50.5947 22.728 50.1627 22.808 49.768 22.968C49.3733 23.1173 49.032 23.336 48.744 23.624C48.4667 23.912 48.248 24.2693 48.088 24.696C47.928 25.1227 47.848 25.608 47.848 26.152C47.848 26.7387 47.928 27.2453 48.088 27.672C48.248 28.0987 48.4667 28.456 48.744 28.744C49.032 29.0213 49.368 29.2293 49.752 29.368C50.1467 29.496 50.5733 29.56 51.032 29.56C51.3413 29.56 51.624 29.5333 51.88 29.48C52.136 29.4267 52.3333 29.3627 52.472 29.288V27.064H50.424C50.3707 26.9787 50.3227 26.8667 50.28 26.728C50.2373 26.5893 50.216 26.4347 50.216 26.264C50.216 25.9867 50.28 25.7787 50.408 25.64C50.5467 25.5013 50.7227 25.432 50.936 25.432H53.624C53.8907 25.432 54.0987 25.5067 54.248 25.656C54.408 25.8053 54.488 26.0133 54.488 26.28V29.656ZM63.9488 27.208C63.9488 27.8267 63.8528 28.3867 63.6608 28.888C63.4794 29.3787 63.2181 29.8 62.8768 30.152C62.5354 30.504 62.1248 30.776 61.6448 30.968C61.1648 31.1493 60.6261 31.24 60.0288 31.24C59.4314 31.24 58.8928 31.1493 58.4128 30.968C57.9328 30.776 57.5221 30.5093 57.1808 30.168C56.8394 29.816 56.5728 29.3947 56.3808 28.904C56.1994 28.4027 56.1088 27.8373 56.1088 27.208C56.1088 26.5893 56.1994 26.0347 56.3808 25.544C56.5728 25.0427 56.8394 24.6213 57.1808 24.28C57.5328 23.928 57.9488 23.6613 58.4288 23.48C58.9088 23.288 59.4421 23.192 60.0288 23.192C60.6154 23.192 61.1488 23.288 61.6288 23.48C62.1088 23.6613 62.5194 23.928 62.8608 24.28C63.2128 24.632 63.4794 25.0587 63.6608 25.56C63.8528 26.0507 63.9488 26.6 63.9488 27.208ZM60.0288 24.792C59.4528 24.792 58.9994 25.0053 58.6688 25.432C58.3381 25.848 58.1728 26.44 58.1728 27.208C58.1728 27.9867 58.3328 28.584 58.6528 29C58.9834 29.416 59.4421 29.624 60.0288 29.624C60.6154 29.624 61.0688 29.416 61.3888 29C61.7194 28.5733 61.8848 27.976 61.8848 27.208C61.8848 26.44 61.7194 25.848 61.3888 25.432C61.0581 25.0053 60.6048 24.792 60.0288 24.792ZM73.0738 27.208C73.0738 27.8267 72.9778 28.3867 72.7858 28.888C72.6044 29.3787 72.3431 29.8 72.0018 30.152C71.6604 30.504 71.2498 30.776 70.7698 30.968C70.2898 31.1493 69.7511 31.24 69.1538 31.24C68.5564 31.24 68.0178 31.1493 67.5378 30.968C67.0578 30.776 66.6471 30.5093 66.3058 30.168C65.9644 29.816 65.6978 29.3947 65.5058 28.904C65.3244 28.4027 65.2338 27.8373 65.2338 27.208C65.2338 26.5893 65.3244 26.0347 65.5058 25.544C65.6978 25.0427 65.9644 24.6213 66.3058 24.28C66.6578 23.928 67.0738 23.6613 67.5538 23.48C68.0338 23.288 68.5671 23.192 69.1538 23.192C69.7404 23.192 70.2738 23.288 70.7538 23.48C71.2338 23.6613 71.6444 23.928 71.9858 24.28C72.3378 24.632 72.6044 25.0587 72.7858 25.56C72.9778 26.0507 73.0738 26.6 73.0738 27.208ZM69.1538 24.792C68.5778 24.792 68.1244 25.0053 67.7938 25.432C67.4631 25.848 67.2978 26.44 67.2978 27.208C67.2978 27.9867 67.4578 28.584 67.7778 29C68.1084 29.416 68.5671 29.624 69.1538 29.624C69.7404 29.624 70.1938 29.416 70.5138 29C70.8444 28.5733 71.0098 27.976 71.0098 27.208C71.0098 26.44 70.8444 25.848 70.5138 25.432C70.1831 25.0053 69.7298 24.792 69.1538 24.792ZM79.6068 30.344C79.3934 30.4507 79.1428 30.5413 78.8548 30.616C78.5774 30.6907 78.2521 30.728 77.8788 30.728C77.3988 30.728 76.9454 30.664 76.5188 30.536C76.0921 30.3973 75.7188 30.1787 75.3988 29.88C75.0788 29.5813 74.8228 29.1973 74.6308 28.728C74.4494 28.248 74.3588 27.6667 74.3588 26.984C74.3588 26.3653 74.4494 25.8213 74.6308 25.352C74.8228 24.872 75.0894 24.472 75.4308 24.152C75.7828 23.832 76.1988 23.592 76.6788 23.432C77.1588 23.272 77.6921 23.192 78.2788 23.192C78.8334 23.192 79.3401 23.2613 79.7988 23.4C80.2681 23.5387 80.6414 23.6987 80.9188 23.88C81.1108 24.008 81.2601 24.152 81.3668 24.312C81.4841 24.472 81.5428 24.6747 81.5428 24.92V31.096C81.5428 31.64 81.4414 32.1093 81.2388 32.504C81.0468 32.8987 80.7801 33.2187 80.4388 33.464C80.0974 33.72 79.6974 33.9067 79.2388 34.024C78.7801 34.1413 78.2841 34.2 77.7508 34.2C77.1961 34.2 76.7108 34.1467 76.2948 34.04C75.8894 33.944 75.5854 33.832 75.3828 33.704C75.0308 33.48 74.8548 33.1813 74.8548 32.808C74.8548 32.6053 74.8974 32.4293 74.9828 32.28C75.0681 32.1307 75.1694 32.0187 75.2868 31.944C75.5641 32.1147 75.9001 32.264 76.2948 32.392C76.6894 32.52 77.1108 32.584 77.5588 32.584C78.1988 32.584 78.7001 32.4613 79.0628 32.216C79.4254 31.9707 79.6068 31.576 79.6068 31.032V30.344ZM78.2148 29.16C78.5241 29.16 78.7854 29.1173 78.9988 29.032C79.2228 28.9467 79.4148 28.8453 79.5748 28.728V25.112C79.4254 25.0267 79.2494 24.952 79.0468 24.888C78.8548 24.824 78.6201 24.792 78.3428 24.792C77.7561 24.792 77.2814 24.9733 76.9188 25.336C76.5668 25.688 76.3908 26.2373 76.3908 26.984C76.3908 27.3893 76.4334 27.7307 76.5188 28.008C76.6148 28.2853 76.7428 28.5093 76.9028 28.68C77.0734 28.8507 77.2708 28.9733 77.4948 29.048C77.7188 29.1227 77.9588 29.16 78.2148 29.16ZM85.6673 30.984C85.5819 31.0053 85.4539 31.032 85.2833 31.064C85.1233 31.096 84.9473 31.112 84.7553 31.112C84.3713 31.112 84.0886 31.0427 83.9073 30.904C83.7366 30.7653 83.6513 30.52 83.6513 30.168V20.6C83.7366 20.568 83.8593 20.5413 84.0193 20.52C84.1899 20.488 84.3713 20.472 84.5633 20.472C84.9473 20.472 85.2246 20.5413 85.3953 20.68C85.5766 20.8187 85.6673 21.064 85.6673 21.416V30.984ZM89.4373 28.12C89.5866 28.664 89.8639 29.0587 90.2693 29.304C90.6746 29.5493 91.1759 29.672 91.7733 29.672C92.2213 29.672 92.6319 29.608 93.0053 29.48C93.3893 29.3413 93.6986 29.1973 93.9333 29.048C94.0826 29.1333 94.2053 29.2507 94.3013 29.4C94.3973 29.5493 94.4453 29.7093 94.4453 29.88C94.4453 30.0933 94.3706 30.2853 94.2213 30.456C94.0826 30.616 93.8853 30.7547 93.6293 30.872C93.3839 30.9893 93.0906 31.08 92.7493 31.144C92.4079 31.208 92.0399 31.24 91.6453 31.24C91.0159 31.24 90.4399 31.1547 89.9173 30.984C89.4053 30.8133 88.9626 30.5573 88.5893 30.216C88.2266 29.864 87.9386 29.432 87.7253 28.92C87.5226 28.408 87.4213 27.8107 87.4213 27.128C87.4213 26.4667 87.5226 25.8907 87.7253 25.4C87.9279 24.9093 88.1999 24.4987 88.5413 24.168C88.8933 23.8373 89.2986 23.592 89.7573 23.432C90.2159 23.272 90.7013 23.192 91.2133 23.192C91.7359 23.192 92.2159 23.2773 92.6533 23.448C93.0906 23.608 93.4639 23.8373 93.7733 24.136C94.0826 24.424 94.3226 24.776 94.4933 25.192C94.6746 25.5973 94.7653 26.04 94.7653 26.52C94.7653 26.8187 94.6853 27.0427 94.5253 27.192C94.3759 27.3413 94.1626 27.4373 93.8853 27.48L89.4373 28.12ZM91.2133 24.712C90.6906 24.712 90.2533 24.888 89.9013 25.24C89.5493 25.5813 89.3519 26.072 89.3093 26.712L92.8613 26.184C92.8186 25.7893 92.6639 25.448 92.3973 25.16C92.1306 24.8613 91.7359 24.712 91.2133 24.712ZM101.843 27.768V30.984C101.747 31.0053 101.609 31.032 101.427 31.064C101.257 31.096 101.07 31.112 100.867 31.112C100.462 31.112 100.174 31.0373 100.003 30.888C99.8433 30.7387 99.7633 30.488 99.7633 30.136V22.104C99.7633 21.9013 99.8166 21.7467 99.9233 21.64C100.03 21.5333 100.179 21.448 100.371 21.384C100.542 21.3307 100.729 21.2827 100.931 21.24C101.145 21.1973 101.363 21.1653 101.587 21.144C101.811 21.112 102.035 21.0907 102.259 21.08C102.483 21.0693 102.697 21.064 102.899 21.064C104.307 21.064 105.363 21.368 106.067 21.976C106.782 22.5733 107.139 23.384 107.139 24.408C107.139 25.432 106.793 26.248 106.099 26.856C105.406 27.464 104.403 27.768 103.091 27.768H101.843ZM102.963 26.104C103.603 26.104 104.105 25.9653 104.467 25.688C104.841 25.4107 105.027 24.984 105.027 24.408C105.027 23.8533 104.851 23.4373 104.499 23.16C104.158 22.8827 103.657 22.744 102.995 22.744C102.537 22.744 102.147 22.776 101.827 22.84V26.104H102.963ZM110.855 30.984C110.769 31.0053 110.641 31.032 110.471 31.064C110.311 31.096 110.135 31.112 109.943 31.112C109.559 31.112 109.276 31.0427 109.095 30.904C108.924 30.7653 108.839 30.52 108.839 30.168V20.6C108.924 20.568 109.047 20.5413 109.207 20.52C109.377 20.488 109.559 20.472 109.751 20.472C110.135 20.472 110.412 20.5413 110.583 20.68C110.764 20.8187 110.855 21.064 110.855 21.416V30.984ZM115.969 29.704C116.278 29.704 116.561 29.6773 116.817 29.624C117.073 29.56 117.259 29.4853 117.377 29.4V27.624L115.825 27.768C115.398 27.8107 115.073 27.9067 114.849 28.056C114.625 28.1947 114.513 28.4187 114.513 28.728C114.513 29.0373 114.625 29.2773 114.849 29.448C115.083 29.6187 115.457 29.704 115.969 29.704ZM115.905 23.192C116.95 23.192 117.782 23.416 118.401 23.864C119.03 24.312 119.345 25.0053 119.345 25.944V29.64C119.345 29.896 119.281 30.0987 119.153 30.248C119.025 30.3973 118.865 30.5307 118.673 30.648C118.374 30.8293 117.995 30.9733 117.537 31.08C117.078 31.1867 116.555 31.24 115.969 31.24C114.902 31.24 114.059 31.0373 113.441 30.632C112.833 30.216 112.529 29.5973 112.529 28.776C112.529 28.0613 112.753 27.5173 113.201 27.144C113.659 26.76 114.321 26.5253 115.185 26.44L117.377 26.216V25.928C117.377 25.5227 117.227 25.224 116.929 25.032C116.641 24.84 116.23 24.744 115.697 24.744C115.281 24.744 114.875 24.7973 114.481 24.904C114.086 25 113.734 25.1227 113.425 25.272C113.307 25.1867 113.206 25.0747 113.121 24.936C113.046 24.7867 113.009 24.6267 113.009 24.456C113.009 24.2427 113.057 24.072 113.153 23.944C113.259 23.8053 113.425 23.6827 113.649 23.576C113.958 23.448 114.31 23.352 114.705 23.288C115.099 23.224 115.499 23.192 115.905 23.192ZM122.509 29.176C122.253 28.6427 121.949 27.9227 121.597 27.016C121.245 26.1093 120.893 25.0107 120.541 23.72C120.647 23.592 120.797 23.4853 120.989 23.4C121.181 23.304 121.389 23.256 121.613 23.256C121.89 23.256 122.114 23.32 122.285 23.448C122.466 23.576 122.61 23.8053 122.717 24.136C123.218 25.7467 123.789 27.3787 124.429 29.032H124.493C124.631 28.68 124.775 28.28 124.925 27.832C125.085 27.384 125.234 26.9147 125.373 26.424C125.522 25.9333 125.661 25.4373 125.789 24.936C125.917 24.4347 126.029 23.9493 126.125 23.48C126.253 23.416 126.386 23.3627 126.525 23.32C126.674 23.2773 126.829 23.256 126.989 23.256C127.266 23.256 127.506 23.32 127.709 23.448C127.911 23.576 128.013 23.784 128.013 24.072C128.013 24.392 127.943 24.8453 127.805 25.432C127.666 26.008 127.479 26.632 127.245 27.304C127.021 27.9653 126.765 28.6373 126.477 29.32C126.189 29.992 125.901 30.584 125.613 31.096C125.058 32.0773 124.551 32.808 124.093 33.288C123.645 33.7787 123.202 34.024 122.765 34.024C122.423 34.024 122.146 33.9227 121.933 33.72C121.73 33.528 121.602 33.2827 121.549 32.984C121.719 32.8347 121.901 32.6587 122.093 32.456C122.285 32.264 122.477 32.056 122.669 31.832C122.861 31.608 123.042 31.3787 123.213 31.144C123.383 30.9093 123.533 30.68 123.661 30.456C123.565 30.424 123.469 30.3867 123.373 30.344C123.287 30.2907 123.197 30.216 123.101 30.12C123.015 30.024 122.919 29.9013 122.813 29.752C122.717 29.6027 122.615 29.4107 122.509 29.176Z" fill="black"/>
<path d="M1.01397 34.4406L27.915 19.5986C28.3862 19.3386 28.3862 18.6614 27.915 18.4014L1.01397 3.55943C0.558302 3.30803 0 3.63764 0 4.15806V33.8419C0 34.3624 0.558302 34.692 1.01397 34.4406Z" fill="url(#paint0_linear_207_360)"/>
<mask id="mask0_207_360" style="mask-type:alpha" maskUnits="userSpaceOnUse" x="0" y="3" width="29" height="32">
<path d="M1.01397 34.4406L27.915 19.5986C28.3862 19.3386 28.3862 18.6614 27.915 18.4014L1.01397 3.55943C0.558302 3.30803 0 3.63764 0 4.15806V33.8419C0 34.3624 0.558302 34.692 1.01397 34.4406Z" fill="url(#paint1_linear_207_360)"/>
</mask>
<g mask="url(#mask0_207_360)">
<path d="M-3.04034 0.0656738L23.0816 24.3333L36.102 17.2222L-3.04034 0.0656738Z" fill="url(#paint2_linear_207_360)"/>
<path d="M-0.59259 35.5925L23.0395 13.1133L30.7748 13.6666L33.7339 25.5184L-0.59259 35.5925Z" fill="url(#paint3_linear_207_360)"/>
<path d="M21.7405 14.1636L17.1786 18.6749L22.0221 23.4682L31.3149 18.9569L21.7405 14.1636Z" fill="url(#paint4_linear_207_360)"/>
</g>
<defs>
<linearGradient id="paint0_linear_207_360" x1="5.68926" y1="2.88532" x2="5.40694" y2="35.0287" gradientUnits="userSpaceOnUse">
<stop stop-color="#288BB5"/>
<stop offset="1" stop-color="#5DF3D1"/>
</linearGradient>
<linearGradient id="paint1_linear_207_360" x1="5.68926" y1="2.88532" x2="5.40694" y2="35.0287" gradientUnits="userSpaceOnUse">
<stop stop-color="#288BB5"/>
<stop offset="1" stop-color="#5DF3D1"/>
</linearGradient>
<linearGradient id="paint2_linear_207_360" x1="8.78685" y1="4.57702" x2="16.9676" y2="16.6916" gradientUnits="userSpaceOnUse">
<stop stop-color="#71D1AC"/>
<stop offset="1" stop-color="#D1E99F"/>
</linearGradient>
<linearGradient id="paint3_linear_207_360" x1="3.99893" y1="31.927" x2="27.3852" y2="19.2639" gradientUnits="userSpaceOnUse">
<stop stop-color="#AA30A7"/>
<stop offset="1" stop-color="#ED393D"/>
</linearGradient>
<linearGradient id="paint4_linear_207_360" x1="24.2749" y1="14.1636" x2="24.2749" y2="23.4682" gradientUnits="userSpaceOnUse">
<stop stop-color="#FF947D"/>
<stop offset="1" stop-color="#FFBE75"/>
</linearGradient>
</defs>
</svg>
