<svg width="160" height="48" viewBox="0 0 160 48" fill="none" xmlns="http://www.w3.org/2000/svg">
<path d="M84.9301 17.045C84.5292 17.045 84.1321 16.9656 83.7617 16.8112C83.3912 16.6568 83.0547 16.4306 82.7712 16.1454C82.4878 15.8602 82.263 15.5216 82.1097 15.149C81.9564 14.7764 81.8776 14.3771 81.8778 13.9739V27.931C81.8971 28.7324 82.2272 29.4945 82.7977 30.0545C83.3682 30.6145 84.1338 30.928 84.931 30.928C85.7282 30.928 86.4939 30.6145 87.0644 30.0545C87.6348 29.4945 87.965 28.7324 87.9842 27.931V17.045H84.9301Z" fill="#84B03F"/>
<path d="M6.34497 6.2146V27.931C6.36422 28.7325 6.69434 29.4946 7.26483 30.0546C7.83532 30.6145 8.60094 30.928 9.39816 30.928C10.1954 30.928 10.961 30.6145 11.5315 30.0546C12.102 29.4946 12.4321 28.7325 12.4514 27.931V6.2146H6.34497Z" fill="#FFD64F"/>
<path d="M34.9376 21.2228C34.9376 19.1821 34.3358 17.1871 33.2083 15.4903C32.0808 13.7935 30.4783 12.4709 28.6033 11.69C26.7284 10.909 24.6652 10.7047 22.6748 11.1028C20.6843 11.5009 18.856 12.4837 17.421 13.9267C15.9859 15.3697 15.0087 17.2083 14.6128 19.2098C14.2168 21.2114 14.42 23.2861 15.1967 25.1715C15.9733 27.0569 17.2885 28.6684 18.9759 29.8022C20.6633 30.936 22.6472 31.5411 24.6766 31.5411C27.398 31.5411 30.0079 30.454 31.9322 28.519C33.8565 26.5839 34.9376 23.9594 34.9376 21.2228Z" fill="#FFD64F"/>
<path d="M79.9119 21.2228C79.9119 19.1821 79.3101 17.1871 78.1826 15.4903C77.0551 13.7935 75.4525 12.4709 73.5776 11.69C71.7026 10.909 69.6395 10.7047 67.649 11.1028C65.6586 11.5009 63.8303 12.4837 62.3952 13.9267C60.9602 15.3697 59.983 17.2083 59.587 19.2098C59.1911 21.2114 59.3943 23.2861 60.1709 25.1715C60.9476 27.0569 62.2627 28.6684 63.9502 29.8022C65.6376 30.936 67.6214 31.5411 69.6509 31.5411C70.9984 31.5411 72.3327 31.2743 73.5776 30.7557C74.8225 30.2372 75.9537 29.4771 76.9065 28.519C77.8593 27.5608 78.6151 26.4234 79.1308 25.1715C79.6465 23.9196 79.9119 22.5779 79.9119 21.2228Z" fill="#59AA47"/>
<path d="M69.6509 48C70.9985 48 72.3329 47.7331 73.578 47.2144C74.823 46.6958 75.9543 45.9356 76.9071 44.9772C77.86 44.0189 78.6157 42.8812 79.1313 41.6291C79.6469 40.377 79.9121 39.0351 79.9118 37.6799H59.3899C59.3899 39.035 59.6553 40.3767 60.1709 41.6286C60.6866 42.8804 61.4424 44.0179 62.3952 44.9761C64.3195 46.9111 66.9295 47.9982 69.6509 47.9982" fill="#007357"/>
<path d="M160 31.5412H139.478V21.5632C139.478 18.8266 140.559 16.2021 142.483 14.267C144.408 12.332 147.018 11.2449 149.739 11.2449C152.46 11.2449 155.07 12.332 156.995 14.267C158.919 16.2021 160 18.8266 160 21.5632V31.5412Z" fill="#B1D34A"/>
<path d="M57.4256 21.2228C57.4256 19.1821 56.8238 17.1871 55.6963 15.4903C54.5688 13.7935 52.9663 12.4709 51.0913 11.69C49.2164 10.909 47.1532 10.7047 45.1628 11.1028C43.1724 11.5009 41.344 12.4837 39.909 13.9267C38.474 15.3697 37.4967 17.2083 37.1008 19.2098C36.7049 21.2114 36.9081 23.2861 37.6847 25.1715C38.4613 27.0569 39.7765 28.6684 41.4639 29.8022C43.1513 30.936 45.1352 31.5411 47.1646 31.5411C49.886 31.5411 52.4959 30.454 54.4203 28.519C56.3446 26.5839 57.4256 23.9594 57.4256 21.2228Z" fill="#F68B33"/>
<path d="M24.6766 9.40032C24.5894 9.25169 24.4985 9.11022 24.422 8.96696C24.1566 8.49241 23.8877 8.02144 23.6331 7.54331C23.3179 6.95595 23.0222 6.35963 22.7587 5.75256C22.5834 5.35728 22.437 4.94971 22.3206 4.53306C22.205 4.08696 22.2331 3.61548 22.4007 3.18642C22.5854 2.68556 22.928 2.25929 23.3764 1.97282C23.8247 1.68635 24.354 1.55544 24.8833 1.60012C25.4127 1.6448 25.9129 1.8626 26.3075 2.22022C26.702 2.57784 26.9692 3.05558 27.0682 3.58038C27.1381 3.96345 27.1087 4.35816 26.9828 4.72646C26.7933 5.32132 26.555 5.89933 26.2704 6.45454C25.9736 7.05145 25.6667 7.6418 25.3498 8.22559C25.1432 8.61239 24.9152 8.98845 24.6962 9.36809C24.6897 9.37924 24.6826 9.39001 24.6748 9.40032H24.6766ZM23.2199 4.02807C23.2203 4.31733 23.3058 4.6 23.4657 4.84046C23.6256 5.08092 23.8527 5.26839 24.1184 5.37925C24.384 5.4901 24.6764 5.51937 24.9586 5.46337C25.2408 5.40737 25.5003 5.2686 25.7041 5.06457C25.908 4.86053 26.0473 4.60035 26.1044 4.31685C26.1614 4.03334 26.1337 3.73918 26.0248 3.47147C25.9159 3.20376 25.7305 2.97448 25.4922 2.81253C25.2539 2.65058 24.9732 2.56321 24.6855 2.56145C24.2979 2.56097 23.9259 2.71511 23.6512 2.99005C23.3764 3.26499 23.2213 3.63829 23.2199 4.02807Z" fill="#27B67C"/>
<path d="M47.1628 9.40037C47.0756 9.25174 46.9847 9.11027 46.9082 8.96701C46.6446 8.49246 46.3739 8.02149 46.1193 7.54336C45.8059 6.95599 45.5085 6.36147 45.2449 5.75261C45.0702 5.35729 44.9244 4.94972 44.8086 4.53311C44.6924 4.08719 44.7199 3.61572 44.887 3.18647C45.0729 2.68677 45.4163 2.26191 45.8646 1.97664C46.313 1.69138 46.8418 1.56136 47.3705 1.60639C47.8992 1.65142 48.3988 1.86903 48.7931 2.22607C49.1873 2.5831 49.4547 3.05998 49.5544 3.58401C49.6237 3.96723 49.5937 4.36195 49.4672 4.73009C49.2778 5.32497 49.0395 5.90299 48.7549 6.45817C48.4569 7.05508 48.15 7.64543 47.8342 8.22922C47.6258 8.61602 47.3997 8.99208 47.1806 9.37351L47.1575 9.40395" fill="#27B67C"/>
<path d="M6.34498 3.14529V6.21464H12.4514V3.14529C12.4612 2.73586 12.3895 2.32859 12.2405 1.94744C12.0915 1.56629 11.8681 1.21896 11.5836 0.925893C11.2992 0.632823 10.9592 0.399932 10.5839 0.240923C10.2086 0.0819144 9.80544 0 9.39817 0C8.99089 0 8.58773 0.0819144 8.21241 0.240923C7.83708 0.399932 7.49718 0.632823 7.21269 0.925893C6.9282 1.21896 6.70488 1.56629 6.55586 1.94744C6.40684 2.32859 6.33514 2.73586 6.34498 3.14529Z" fill="#F58229"/>
<path d="M0 3.14356C-1.37644e-07 3.95777 0.321524 4.73866 0.89389 5.31455C1.46626 5.89045 2.24262 6.21423 3.0523 6.2147H6.34501V3.14536C6.34478 2.74213 6.42355 2.34281 6.57684 1.97022C6.73013 1.59762 6.95492 1.25905 7.23838 0.973842C7.52183 0.688638 7.8584 0.462391 8.22883 0.30803C8.59927 0.153669 8.99633 0.0742187 9.39731 0.0742188L3.0523 0.0742188C2.24292 0.0746932 1.46683 0.398222 0.894519 0.973733C0.322204 1.54924 0.000471802 2.32967 0 3.14356H0Z" fill="#F7955B"/>
<path d="M15.7423 0.0741376H9.39731C10.2073 0.0741376 10.9841 0.397703 11.5569 0.973653C12.1296 1.5496 12.4514 2.33076 12.4514 3.14527V6.21462H15.7423C16.1495 6.22451 16.5545 6.15241 16.9335 6.00256C17.3125 5.85271 17.6579 5.62814 17.9494 5.34206C18.2408 5.05598 18.4724 4.71418 18.6306 4.33676C18.7887 3.95934 18.8701 3.55393 18.8701 3.14438C18.8701 2.73483 18.7887 2.32942 18.6306 1.952C18.4724 1.57458 18.2408 1.23277 17.9494 0.946696C17.6579 0.660619 17.3125 0.436049 16.9335 0.2862C16.5545 0.13635 16.1495 0.0642489 15.7423 0.0741376Z" fill="#F7955B"/>
<path d="M89.5745 10.9045H84.9444C85.3453 10.9043 85.7424 10.9835 86.113 11.1377C86.4835 11.2918 86.8202 11.5179 87.1038 11.8029C87.3874 12.0879 87.6124 12.4264 87.7659 12.7989C87.9194 13.1714 87.9984 13.5707 87.9984 13.9739V17.045H89.5745C90.3714 17.0257 91.1293 16.6937 91.6862 16.12C92.2431 15.5464 92.5548 14.7765 92.5548 13.9748C92.5548 13.1731 92.2431 12.4032 91.6862 11.8295C91.1293 11.2559 90.3714 10.9239 89.5745 10.9045Z" fill="#59AA47"/>
<path d="M84.9301 10.9045C84.1331 10.9239 83.3752 11.2559 82.8184 11.8295C82.2615 12.4032 81.9498 13.1731 81.9498 13.9748C81.9498 14.7765 82.2615 15.5464 82.8184 16.12C83.3752 16.6937 84.1331 17.0257 84.9301 17.045H87.9842V13.9739C87.9842 13.5707 87.9052 13.1714 87.7517 12.7989C87.5982 12.4264 87.3732 12.0879 87.0896 11.8029C86.8059 11.5179 86.4692 11.2918 86.0987 11.1377C85.7282 10.9835 85.3311 10.9043 84.9301 10.9045Z" fill="#0B9446"/>
<path d="M104.765 10.9045C103.128 10.9033 101.514 11.2967 100.06 12.0516C98.6049 12.8066 97.3513 13.9011 96.4039 15.2435L96.5267 15.3349L104.77 21.2228H115.026C115.026 18.4863 113.945 15.8618 112.02 13.9267C110.096 11.9916 107.486 10.9045 104.765 10.9045Z" fill="#00B262"/>
<path d="M94.5091 21.2228H104.77L96.4003 15.2471C95.4104 16.6448 94.7841 18.2694 94.5785 19.9729C94.5589 20.1322 94.5447 20.2916 94.5322 20.4492C94.5322 20.4599 94.5322 20.4689 94.5322 20.4778C94.5216 20.6354 94.5144 20.7912 94.5091 20.9488V20.9757C94.5073 21.0634 94.5091 21.1422 94.5091 21.2228Z" fill="#0C9848"/>
<path d="M94.5091 21.2229C94.5085 23.4116 95.2001 25.5437 96.4839 27.3111C97.7677 29.0784 99.5772 30.3894 101.651 31.0545C103.724 31.7196 105.955 31.7043 108.019 31.0108C110.083 30.3174 111.875 28.9817 113.135 27.1968L104.765 21.2229H94.5091Z" fill="#C9DC50"/>
<path d="M127.249 10.9045C125.612 10.9033 123.999 11.2967 122.544 12.0516C121.089 12.8066 119.836 13.9011 118.888 15.2435L119.011 15.3349L127.255 21.2228H137.51C137.51 18.4863 136.429 15.8618 134.505 13.9267C132.58 11.9916 129.971 10.9045 127.249 10.9045Z" fill="#BECD3B"/>
<path d="M116.999 21.2228H127.26L118.89 15.2471C117.9 16.6448 117.274 18.2694 117.068 19.9729C117.049 20.1322 117.035 20.2916 117.022 20.4492C117.022 20.4599 117.022 20.4689 117.022 20.4778C117.011 20.6354 117.004 20.7912 116.999 20.9488V20.9757C116.999 21.0634 116.999 21.1422 116.999 21.2228Z" fill="#5CA446"/>
<path d="M116.999 21.2229C116.998 23.4116 117.69 25.5437 118.974 27.3111C120.258 29.0784 122.067 30.3894 124.141 31.0545C126.214 31.7196 128.444 31.7043 130.509 31.0108C132.573 30.3174 134.365 28.9817 135.624 27.1968L127.255 21.2229H116.999Z" fill="#84AD40"/>
</svg>
