<svg width="46" height="49" viewBox="0 0 46 49" fill="none" xmlns="http://www.w3.org/2000/svg">
<path fill-rule="evenodd" clip-rule="evenodd" d="M39.3863 21.566C37.8073 23.2388 35.1698 26.4416 35.0975 29.238C35.0225 32.1391 37.6846 35.5224 39.3154 37.3162C39.2131 36.7449 39.1175 36.0363 39.0725 35.2273C38.9531 33.0772 39.1897 30.1819 40.6437 27.274C40.8681 26.8251 41.4139 26.6432 41.8628 26.8676C42.3117 27.092 42.4936 27.6378 42.2692 28.0867C40.9971 30.6309 40.7794 33.1876 40.8871 35.1265C40.9408 36.0938 41.0752 36.8983 41.1949 37.457C41.2164 37.5574 41.2374 37.6498 41.2574 37.7336C41.4279 37.6473 41.5871 37.528 41.7262 37.3758C43.3514 35.5982 46.0744 32.1716 45.9985 29.238C45.9262 26.4416 43.2887 23.2388 41.7097 21.566C41.0698 20.8881 40.0262 20.8881 39.3863 21.566Z" fill="#F27E24"/>
<path fill-rule="evenodd" clip-rule="evenodd" d="M4.85651 21.566C3.27748 23.2388 0.640014 26.4416 0.567714 29.238C0.492703 32.1392 3.15502 35.5226 4.78578 37.3163C4.68341 36.7451 4.58782 36.0364 4.54287 35.2273C4.42342 33.0772 4.66006 30.1819 6.11401 27.274C6.33844 26.8251 6.88426 26.6432 7.33312 26.8676C7.78199 27.092 7.96393 27.6378 7.7395 28.0867C6.46742 30.6309 6.24971 33.1876 6.35743 35.1265C6.41116 36.0938 6.5455 36.8983 6.66521 37.457C6.68673 37.5574 6.70775 37.6498 6.72771 37.7336C6.89818 37.6473 7.05731 37.528 7.19643 37.3758C8.82163 35.5982 11.5446 32.1716 11.4687 29.238C11.3964 26.4416 8.75896 23.2388 7.17994 21.566C6.54003 20.8881 5.49642 20.8881 4.85651 21.566Z" fill="#F27E24"/>
<circle cx="23.283" cy="6.78078" r="6.36073" fill="#59AA47"/>
<circle cx="40.5479" cy="13.1414" r="3.63471" fill="#F27E24"/>
<circle cx="6.01825" cy="13.1414" r="3.63471" fill="#F27E24"/>
<path fill-rule="evenodd" clip-rule="evenodd" d="M22.0791 18.0009C19.6391 20.5933 14.3288 26.839 14.1962 32.2237C14.0573 37.8646 19.5515 44.547 22.0617 47.2986C22.1154 47.3574 22.172 47.4115 22.2311 47.4609C22.1402 47.1999 22.0287 46.8525 21.9101 46.4219C21.6271 45.3943 21.3043 43.8929 21.1287 41.9609C20.7771 38.0938 21.0165 32.5155 23.3298 25.5758C23.4885 25.0998 24.0031 24.8425 24.4792 25.0012C24.9553 25.1599 25.2126 25.6745 25.0539 26.1506C22.8236 32.841 22.6086 38.1668 22.9386 41.7964C23.1037 43.6127 23.4056 45.0077 23.6622 45.9394C23.7905 46.4053 23.9075 46.7554 23.9903 46.9843C24.0317 47.0988 24.0646 47.183 24.086 47.2362C24.0968 47.2628 24.1047 47.2817 24.1094 47.2928L24.1134 47.3024L24.1138 47.3032C24.1526 47.3908 24.1765 47.4812 24.1865 47.5717C24.3001 47.4962 24.4069 47.4052 24.5042 47.2986C27.0144 44.547 32.5087 37.8646 32.3697 32.2237C32.2371 26.839 26.9268 20.5933 24.4868 18.0009C23.8247 17.2975 22.7412 17.2975 22.0791 18.0009ZM22.9631 47.8137L23.2831 47.6714C23.1587 47.7267 23.0529 47.7737 22.963 47.8137C22.963 47.8137 22.963 47.8137 22.9631 47.8137Z" fill="#59AA47"/>
</svg>
