<svg width="496" height="490" viewBox="0 0 496 490" fill="none" xmlns="http://www.w3.org/2000/svg">
<circle cx="236.188" cy="253.603" r="236.188" fill="#F7FBF6"/>
<mask id="mask0_207_398" style="mask-type:alpha" maskUnits="userSpaceOnUse" x="0" y="17" width="473" height="473">
<circle cx="236.188" cy="253.603" r="236.188" fill="#F7FBF6"/>
</mask>
<g mask="url(#mask0_207_398)">
<path d="M96.2292 271.084C85.8823 277.852 93.3745 344.026 93.3745 344.026L262.42 404.027L293.882 378.879C293.882 378.879 319.809 369.28 317.794 352.379C316.452 341.127 291.715 339.657 291.715 339.657C291.715 339.657 317.913 318.928 307.956 297.154C301.139 282.247 277.516 294.509 277.516 294.509C277.516 294.509 280.765 275.949 272.342 273.841C264.901 271.979 258.807 285.215 258.807 285.215C258.807 285.215 259.691 265.468 249.151 259.975C234.647 252.417 217.297 281.607 217.297 281.607C217.297 281.607 214.449 276.159 210.349 273.336C204.043 268.994 191.7 279.382 191.7 279.382C191.7 279.382 178.901 224.6 155.814 219.102C137.375 214.711 139.842 234.446 139.842 234.446C139.842 234.446 129.273 230.719 122.366 235.018C101.733 247.863 114.939 280.378 114.939 280.378C114.939 280.378 103.057 266.618 96.2292 271.084Z" fill="#A8D830"/>
<path d="M111.032 288.372C98.8698 285.393 105.326 319.925 105.326 319.925L268.688 385.936C268.688 385.936 287.359 379.81 290.466 369.12C294.105 356.599 272.332 346.522 272.332 346.522C272.332 346.522 293.122 317.759 286.975 308.822C280.456 299.341 257.55 310.286 257.55 310.286C257.55 310.286 251.223 277.586 236.851 277.688C224.288 277.777 221.285 302.749 221.285 302.749C221.285 302.749 218.061 283.352 206.03 282.011C193.999 280.671 183.932 296.495 183.932 296.495C183.932 296.495 172.131 253.572 162.451 252.677C153.462 251.846 150.905 279.506 150.905 279.506C150.905 279.506 144.562 251.746 130.643 249.737C122.384 248.545 122.02 297.757 122.02 297.757C122.02 297.757 116.513 289.715 111.032 288.372Z" fill="#6AB51C"/>
<path d="M180.532 329.986C171.025 337.567 162.554 348.267 158.358 359.39C154.167 370.497 154.281 381.873 161.638 391.096C169.033 400.368 180.412 403.929 191.928 402.82C203.456 401.71 215 395.924 222.556 386.668C240.346 364.876 245.548 339.391 230.715 320.736C225.185 315.251 217.515 313.718 208.737 315.487C199.913 317.266 190.08 322.371 180.532 329.986Z" fill="#46900C" stroke="#3A4800" stroke-width="2.27559"/>
<path d="M182.582 333.705C165.896 347.012 152.738 371.282 166.003 387.912C179.267 404.543 206.767 400.456 220.213 384.009C235.771 364.977 240.596 342.384 227.332 325.753C217.182 315.632 199.267 320.397 182.582 333.705Z" fill="#FFEA60"/>
<path d="M182.583 333.703C165.897 347.01 152.739 371.281 166.004 387.911C166.004 387.911 183.736 375.961 197.182 359.514C212.74 340.481 227.333 325.752 227.333 325.752C217.183 315.63 199.268 320.395 182.583 333.703Z" fill="#FDDE3E"/>
<path d="M184.137 352.089C176.157 359.248 170.53 372.098 178.189 380.634C185.848 389.17 199.863 386.701 206.017 377.938C213.138 367.799 214.54 355.926 206.881 347.391C201.146 342.221 192.118 344.929 184.137 352.089Z" fill="#5F504A"/>
<path opacity="0.1" d="M191.101 350.855C187.628 353.97 185.18 359.561 188.513 363.274C191.845 366.988 197.943 365.914 200.62 362.102C203.718 357.69 204.328 352.525 200.996 348.811C198.501 346.561 194.573 347.74 191.101 350.855Z" fill="white"/>
<path opacity="0.3" d="M194.352 350.296C192.512 351.946 191.216 354.908 192.981 356.875C194.746 358.842 197.976 358.273 199.394 356.254C201.036 353.917 201.359 351.18 199.593 349.213C198.272 348.022 196.191 348.646 194.352 350.296Z" fill="white"/>
<path d="M112.523 340.283C119.965 316.949 151.909 305.17 171.227 319.723C184.146 329.455 188.463 343.075 185.022 359.084C180.845 378.519 165.012 391.938 145.413 390.772C122.013 389.379 105.31 362.901 112.523 340.283Z" fill="#A9CF75" stroke="#4F8B63" stroke-width="3.17373"/>
<path d="M118.738 342.263C124.946 322.82 151.389 312.941 167.33 325.011C177.991 333.082 181.529 344.411 178.646 357.746C175.147 373.935 162.023 385.143 145.819 384.218C126.471 383.113 112.721 361.109 118.738 342.263Z" fill="#E5F5C3"/>
<path d="M148.668 345.367L143.878 329.599C143.482 328.297 142.29 327.465 140.999 327.899C139.925 328.26 138.454 328.892 136.57 330.001C134.139 331.432 132.623 332.693 131.689 333.651C130.7 334.666 131.06 336.134 132.207 336.966L146.219 347.114C147.451 348.006 149.111 346.822 148.668 345.367Z" fill="#A8CD79"/>
<path d="M143.718 354.906L128.828 359.828C128.647 359.888 128.462 359.973 128.403 360.154C128.258 360.597 128.296 361.811 130.22 364.948C131.896 367.681 133.229 369.016 134.134 369.667C134.91 370.225 135.831 369.849 136.416 369.093L145.472 357.384C146.429 356.145 145.205 354.415 143.718 354.906Z" fill="#A8CD79"/>
<path d="M153.755 359.453L157.783 373.052C157.858 373.303 157.984 373.557 158.243 373.598C158.764 373.683 160.012 373.479 162.861 371.586C165.527 369.815 166.813 368.437 167.433 367.508C167.965 366.71 167.553 365.801 166.772 365.244L156.197 357.71C154.969 356.835 153.327 358.007 153.755 359.453Z" fill="#A8CD79"/>
<path d="M157.868 348.206L171.084 344.578C171.707 344.407 172.281 344.034 172.391 343.398C172.553 342.457 172.416 340.757 170.721 338.128C167.303 332.825 165.882 334.028 165.746 334.164C165.739 334.172 165.732 334.179 165.725 334.188L165.725 334.189L156.225 345.663C155.236 346.858 156.372 348.616 157.868 348.206Z" fill="#A8CD79"/>
<path d="M144.43 349.075L131.118 340.232C129.665 339.267 127.72 339.672 126.99 341.256C126.2 342.972 125.337 345.342 125.056 347.942C124.74 350.864 124.869 352.879 125.097 354.199C125.325 355.517 126.621 356.108 127.921 355.795L143.924 351.94C145.271 351.616 145.584 349.842 144.43 349.075Z" fill="#A8CD79"/>
<path d="M153.656 344.355L162.206 333.241C163.27 331.858 162.977 329.922 161.407 329.16C160.251 328.6 158.719 327.96 156.794 327.362C154.059 326.514 151.73 326.315 150.036 326.342C148.349 326.368 147.34 327.968 147.707 329.615L150.85 343.732C151.142 345.046 152.836 345.422 153.656 344.355Z" fill="#A8CD79"/>
<path d="M156.523 351.466L171.258 348.272C172.666 347.967 174.077 348.684 174.227 350.117C174.366 351.438 174.315 353.289 173.648 355.605C172.805 358.53 171.888 360.375 171.165 361.501C170.48 362.566 169.137 362.654 168.066 361.977L156.011 354.358C154.811 353.6 155.135 351.767 156.523 351.466Z" fill="#A8CD79"/>
<path d="M148.635 358.494L139.693 369.818C138.526 371.295 138.919 373.427 140.654 374.154C142.21 374.805 144.245 375.492 146.534 375.858C149.394 376.315 151.397 376.296 152.727 376.141C154.084 375.983 154.741 374.684 154.456 373.348L151.432 359.147C151.152 357.833 149.468 357.439 148.635 358.494Z" fill="#A8CD79"/>
<path d="M92.4459 247.214C100.945 246.741 86.5408 269.942 86.5408 269.942C86.5408 269.942 70.9663 261.93 68.6703 254.373C67.4993 250.519 74.5531 251.133 74.5531 251.133C74.5531 251.133 55.8747 243.338 58.356 236.508C59.326 233.839 65.1028 234.59 65.1028 234.59C65.1028 234.59 55.0801 222.522 59.2957 216.346C64.6448 208.51 79.7296 229.485 79.7296 229.485C79.7296 229.485 81.4282 222.035 84.6942 223.221C95.7112 227.224 87.8318 251.588 87.8318 251.588C87.8318 251.588 89.9066 247.355 92.4459 247.214Z" fill="#71A948"/>
<path d="M85.5953 264.221C85.5953 264.221 90.5596 257.957 89.4791 253.531" stroke="#AECC5C" stroke-width="1.58686" stroke-linecap="round"/>
<path d="M78.221 241.04C78.221 241.04 84.859 235.721 84.6681 227.921" stroke="#AECC5C" stroke-width="1.58686" stroke-linecap="round"/>
<path d="M79.4077 245.168C79.4077 245.168 69.6106 245.306 64.5623 239.775" stroke="#AECC5C" stroke-width="1.58686" stroke-linecap="round"/>
<path d="M84.0013 260.279C84.0013 260.279 79.4942 260.659 75.0398 255.343" stroke="#AECC5C" stroke-width="1.58686" stroke-linecap="round"/>
<path d="M86.244 269.835C86.244 269.835 81.3516 239.823 69.6082 226.816" stroke="#AECC5C" stroke-width="1.58686" stroke-linecap="round"/>
<path d="M134.083 319.119C124.47 325.575 116.771 315.002 116.771 315.002L101.156 324.093L85.763 317.491C85.763 317.491 74.3623 324.549 64.8394 317.194C51.176 306.641 59.7524 292.114 59.7524 292.114C59.7524 292.114 49.0707 291.394 48.102 279.81C47.1332 268.227 59.2937 265.32 59.2937 265.32C59.2937 265.32 55.5935 256.514 62.5448 249.985C71.0408 242.005 81.1727 249.831 81.1727 249.831C81.1727 249.831 83.8978 239.377 93.3811 237.448C106.714 234.735 111.033 247.116 111.033 247.116C111.033 247.116 115.83 240.906 122.077 243.087C129.887 245.814 129.042 253.754 129.042 253.754C129.042 253.754 139.4 251.179 146.034 258.286C156.163 269.136 143.951 279.811 143.951 279.811C143.951 279.811 153.962 282.255 151.838 291.852C149.715 301.448 139.761 302.353 139.761 302.353C139.761 302.353 145.074 311.738 134.083 319.119Z" fill="#019F2F"/>
<mask id="mask1_207_398" style="mask-type:alpha" maskUnits="userSpaceOnUse" x="48" y="237" width="105" height="88">
<path d="M134.082 319.119C124.468 325.575 116.77 315.001 116.77 315.001L101.155 324.092L85.7615 317.491C85.7615 317.491 74.3608 324.549 64.8379 317.194C51.1746 306.641 59.7509 292.113 59.7509 292.113C59.7509 292.113 49.0693 291.394 48.1005 279.81C47.1318 268.226 59.2922 265.32 59.2922 265.32C59.2922 265.32 55.5921 256.513 62.5434 249.985C71.0393 242.005 81.1713 249.831 81.1713 249.831C81.1713 249.831 83.8963 239.377 93.3796 237.447C106.712 234.735 111.032 247.115 111.032 247.115C111.032 247.115 115.828 240.905 122.076 243.087C129.885 245.814 129.04 253.754 129.04 253.754C129.04 253.754 139.398 251.178 146.033 258.286C156.161 269.136 143.95 279.811 143.95 279.811C143.95 279.811 153.961 282.255 151.837 291.852C149.713 301.448 139.76 302.353 139.76 302.353C139.76 302.353 145.073 311.738 134.082 319.119Z" fill="#019F2F"/>
</mask>
<g mask="url(#mask1_207_398)">
<path d="M7.10299 219.172C15.5689 210.804 28.66 220.244 28.66 220.244L42.9705 208.082L63.3172 212.051C63.3172 212.051 73.5968 202.74 87.4956 208.549C107.437 216.883 103.4 233.339 103.4 233.339C103.4 233.339 115.971 232.133 121.729 243.834C127.487 255.535 114.669 260.727 114.669 260.727C114.669 260.727 122.454 269.084 117.079 277.043C110.509 286.77 95.7209 280.59 95.7209 280.59C95.7209 280.59 96.7785 291.804 86.6474 295.507C72.4042 300.714 62.474 288.806 62.474 288.806C62.474 288.806 59.4484 296.046 51.39 294.946C41.3171 293.571 39.1049 285.276 39.1049 285.276C39.1049 285.276 28.2276 289.801 17.7496 283.721C1.75321 274.438 11.5149 261.271 11.5149 261.271C11.5149 261.271 -0.97604 260.586 -2.38137 250.36C-3.78671 240.134 7.29563 237.396 7.29563 237.396C7.29563 237.396 -2.57616 228.739 7.10299 219.172Z" fill="#3EBE2E"/>
</g>
<path d="M116.64 316.882C112.648 326.292 112.729 340.518 113.242 349.088C113.501 353.406 111.108 357.678 106.861 358.504C105.66 358.738 104.456 358.886 103.386 358.863C101.773 358.828 99.9206 358.393 98.174 357.832C94.2083 356.558 92.2376 352.348 92.6007 348.199C93.1339 342.104 93.2903 333.298 90.7515 327.292C87.8478 320.423 79.8411 313.487 75.21 309.883C73.3836 308.462 72.9744 305.804 74.389 303.973C76.0817 301.781 79.4518 301.908 81.0869 304.143C82.771 306.444 84.875 309.127 86.7958 311.017C90.4358 314.6 97.1468 319.012 97.1468 319.012C97.1468 319.012 98.5631 309.156 98.422 302.812C98.3367 298.974 97.6264 293.938 97.0416 290.369C96.6645 288.067 98.4289 285.939 100.761 285.943C102.944 285.948 104.656 287.831 104.529 290.01C104.333 293.35 104.187 298.096 104.612 301.644C105.322 307.568 108.379 316.451 108.379 316.451L125.053 290.418C126.443 288.248 129.394 287.736 131.434 289.311C133.571 290.962 133.745 294.144 131.879 296.095C127.355 300.823 119.828 309.366 116.64 316.882Z" fill="#86DC0E"/>
<path d="M323.434 328.647C329.367 326.6 338.169 325.996 343.239 325.819C345.053 325.755 346.229 323.809 345.397 322.195C344.871 321.177 343.704 320.678 342.579 320.897C337.651 321.859 332.247 321.558 326.461 323.314C318.261 325.802 310.044 330.807 309.918 330.949L299.167 344.315C299.167 344.315 312.833 332.304 323.434 328.647Z" fill="#8FC717"/>
<path d="M341.597 296.651C341.827 296.28 342.02 295.858 342.181 295.407C342.983 293.161 340.205 292.142 338.72 294.009L314.12 324.944L319.955 320.965C319.955 320.965 336.327 305.148 341.597 296.651Z" fill="#8FC717"/>
<path d="M304.375 319.139C299.027 328.604 286.506 340.502 286.506 340.502L287.926 344.06C287.926 344.06 301.848 330.252 307.469 320.172C311.618 312.732 313.289 306.395 313.849 301.596C314.159 298.931 311.772 298.801 311.065 301.389C309.513 307.069 307.233 314.081 304.375 319.139Z" fill="#13A114"/>
<path d="M326.767 340.634C316.049 342.451 294.608 354.593 294.608 354.593L291.744 352.049C291.744 352.049 312.119 337.497 326.845 337.373C331.016 337.338 334.713 337.502 337.951 337.782C340.945 338.041 340.579 340.01 337.574 339.969C333.826 339.919 330.03 340.08 326.767 340.634Z" fill="#13A114"/>
<path d="M314.795 314.075C309.447 323.541 288.598 343.507 288.598 343.507L290.018 347.065C290.018 347.065 313.442 324.514 319.063 314.434C323.114 307.168 325.201 301.309 326.259 296.961C326.879 294.415 324.624 293.901 323.549 296.291C321.094 301.746 317.78 308.792 314.795 314.075Z" fill="#6AB51C"/>
<path d="M326.239 335.159C315.715 337.885 291.979 351.106 291.979 351.106L288.908 348.816C288.908 348.816 315.806 333.773 326.994 330.943C335.025 328.912 341.448 328.472 346.198 328.645C348.883 328.743 348.759 331.179 346.097 331.548C339.881 332.408 332.011 333.665 326.239 335.159Z" fill="#6AB51C"/>
<path d="M321.803 321.463C313.022 327.872 295.606 350.895 295.606 350.895L291.908 349.897C291.908 349.897 311.308 324.336 320.668 317.586C326.498 313.381 333.43 310.158 339.89 307.759C342.775 306.687 343.804 309.639 341.028 310.97C333.473 314.595 325.751 318.582 321.803 321.463Z" fill="#B7DF59"/>
<path d="M247.093 351.288C253.383 345.305 259.876 341.43 265.439 338.929C274.647 334.791 285.143 337.51 292.419 344.508C293.882 345.916 295.257 347.351 296.388 348.727C296.726 349.139 297.067 349.574 297.407 350.027C304.402 359.348 304.544 373.176 295.831 380.915C290.294 385.834 286.534 386.309 280.958 391.184C275.03 396.366 273.097 401.223 267.29 406.539C260.835 412.449 249.323 415.774 249.323 415.774L189.991 428.323C189.991 428.323 225.796 371.545 247.093 351.288Z" fill="#F07316"/>
<mask id="mask2_207_398" style="mask-type:alpha" maskUnits="userSpaceOnUse" x="189" y="336" width="114" height="93">
<path d="M247.092 351.288C253.383 345.305 259.876 341.429 265.439 338.929C274.646 334.791 285.143 337.51 292.419 344.508C293.882 345.915 295.257 347.351 296.388 348.727C296.726 349.139 297.067 349.574 297.407 350.027C304.402 359.348 304.544 373.176 295.831 380.915C290.294 385.834 286.534 386.309 280.958 391.184C275.03 396.365 273.097 401.223 267.29 406.539C260.835 412.449 249.323 415.774 249.323 415.774L189.991 428.323C189.991 428.323 225.796 371.544 247.092 351.288Z" fill="#F07316"/>
</mask>
<g mask="url(#mask2_207_398)">
<path d="M250.723 355.681C261.123 347.694 277.292 327.323 286.88 336.27C289.93 339.115 291.197 341.467 292.247 345.504C295.656 358.608 273.675 369.05 262.135 376.132C250.283 383.405 222.105 396.77 222.105 396.77C222.105 396.77 238.657 364.95 250.723 355.681Z" fill="#E3690D"/>
<path d="M245.004 349.552C255.403 341.564 266.245 323.802 275.833 332.749C278.883 335.594 288.341 327.086 289.391 331.122C292.8 344.227 233.184 354.292 224.241 398.198C221.465 411.825 208.531 385.122 208.531 385.122C208.531 385.122 232.937 358.82 245.004 349.552Z" fill="#D03A16"/>
</g>
<path d="M280.63 354.19C282.195 355.872 283.959 358.696 284.639 359.824C284.815 360.114 284.777 360.481 284.552 360.734C284.282 361.038 283.826 361.085 283.505 360.836C282.416 359.992 280.022 358.069 278.637 356.429C277.699 355.319 276.607 353.61 276.039 352.69C275.806 352.311 275.853 351.827 276.15 351.494C276.51 351.089 277.123 351.035 277.541 351.38C278.381 352.073 279.74 353.233 280.63 354.19Z" fill="#E05619"/>
<path d="M258.454 384.85C259.198 385.65 260.036 386.992 260.36 387.528C260.443 387.666 260.425 387.841 260.318 387.962C260.19 388.106 259.973 388.128 259.821 388.01C259.303 387.609 258.165 386.694 257.506 385.914C257.06 385.387 256.541 384.574 256.271 384.137C256.159 383.956 256.182 383.726 256.323 383.568C256.495 383.375 256.786 383.349 256.985 383.513C257.384 383.843 258.03 384.394 258.454 384.85Z" fill="#F0B916"/>
<path d="M294.599 370.008C295.343 370.808 296.181 372.15 296.505 372.687C296.588 372.824 296.57 372.999 296.463 373.12C296.335 373.264 296.118 373.286 295.966 373.168C295.448 372.767 294.31 371.852 293.651 371.072C293.205 370.545 292.686 369.732 292.416 369.295C292.304 369.114 292.327 368.884 292.468 368.726C292.64 368.533 292.931 368.507 293.13 368.672C293.529 369.001 294.175 369.553 294.599 370.008Z" fill="#F0B916"/>
<path d="M239.713 402.682C240.457 403.482 241.295 404.825 241.619 405.361C241.702 405.499 241.684 405.674 241.577 405.794C241.449 405.939 241.232 405.961 241.08 405.843C240.562 405.442 239.424 404.527 238.765 403.747C238.319 403.219 237.8 402.407 237.53 401.969C237.419 401.789 237.441 401.559 237.582 401.4C237.754 401.208 238.045 401.182 238.244 401.346C238.643 401.676 239.289 402.227 239.713 402.682Z" fill="#F0B916"/>
<path d="M297.79 358.049C298.534 358.849 299.372 360.192 299.696 360.728C299.779 360.866 299.761 361.041 299.654 361.161C299.526 361.305 299.309 361.328 299.157 361.209C298.639 360.808 297.501 359.894 296.842 359.114C296.396 358.586 295.877 357.773 295.607 357.336C295.496 357.156 295.518 356.925 295.659 356.767C295.831 356.574 296.122 356.549 296.321 356.713C296.72 357.042 297.366 357.594 297.79 358.049Z" fill="#E05619"/>
<path d="M262.842 376.893C264.238 377.857 265.959 379.611 266.63 380.315C266.802 380.497 266.833 380.768 266.711 380.986C266.565 381.248 266.244 381.354 265.973 381.226C265.054 380.791 263.022 379.786 261.762 378.825C260.909 378.175 259.849 377.117 259.294 376.544C259.065 376.308 259.022 375.951 259.183 375.664C259.378 375.315 259.811 375.178 260.168 375.36C260.883 375.726 262.047 376.345 262.842 376.893Z" fill="#F0B916"/>
<path d="M240.106 390.866C241.445 391.908 243.062 393.759 243.69 394.5C243.852 394.691 243.868 394.964 243.733 395.175C243.572 395.427 243.246 395.515 242.983 395.372C242.09 394.885 240.119 393.765 238.917 392.732C238.103 392.034 237.106 390.917 236.584 390.313C236.369 390.064 236.347 389.706 236.524 389.428C236.739 389.091 237.179 388.979 237.524 389.182C238.217 389.588 239.344 390.273 240.106 390.866Z" fill="#E05619"/>
<path d="M252.34 396.753C253.679 397.795 255.296 399.645 255.924 400.387C256.086 400.578 256.102 400.85 255.968 401.061C255.806 401.314 255.48 401.402 255.217 401.258C254.324 400.772 252.353 399.651 251.151 398.619C250.337 397.92 249.34 396.803 248.818 396.2C248.603 395.951 248.581 395.592 248.758 395.315C248.973 394.977 249.413 394.866 249.758 395.068C250.451 395.474 251.578 396.16 252.34 396.753Z" fill="#E05619"/>
<path d="M272.689 391.928C274.028 392.97 275.645 394.821 276.274 395.562C276.435 395.753 276.451 396.026 276.317 396.237C276.156 396.489 275.829 396.577 275.566 396.434C274.673 395.947 272.702 394.827 271.5 393.794C270.686 393.096 269.689 391.979 269.167 391.375C268.952 391.126 268.93 390.767 269.107 390.49C269.322 390.152 269.762 390.041 270.108 390.244C270.801 390.65 271.928 391.335 272.689 391.928Z" fill="#E05619"/>
<path d="M277.823 375.855C279.161 376.897 280.778 378.748 281.407 379.49C281.569 379.681 281.585 379.953 281.45 380.164C281.289 380.417 280.963 380.505 280.7 380.361C279.807 379.874 277.836 378.754 276.633 377.722C275.82 377.023 274.822 375.906 274.301 375.302C274.086 375.054 274.064 374.695 274.24 374.417C274.455 374.08 274.896 373.969 275.241 374.171C275.934 374.577 277.061 375.263 277.823 375.855Z" fill="#E05619"/>
<path d="M267.376 363.116C268.715 364.158 270.332 366.009 270.961 366.751C271.122 366.941 271.138 367.214 271.004 367.425C270.843 367.678 270.516 367.765 270.253 367.622C269.36 367.135 267.389 366.015 266.187 364.983C265.373 364.284 264.376 363.167 263.854 362.563C263.639 362.314 263.617 361.956 263.794 361.678C264.009 361.341 264.449 361.229 264.794 361.432C265.488 361.838 266.615 362.523 267.376 363.116Z" fill="#E05619"/>
<path d="M260.33 367.163C261.669 368.205 263.286 370.055 263.915 370.797C264.076 370.988 264.092 371.26 263.958 371.471C263.797 371.724 263.47 371.812 263.207 371.668C262.314 371.182 260.343 370.061 259.141 369.029C258.327 368.331 257.33 367.213 256.808 366.61C256.593 366.361 256.571 366.002 256.748 365.725C256.963 365.387 257.403 365.276 257.749 365.478C258.442 365.884 259.569 366.57 260.33 367.163Z" fill="#F0B916"/>
<path d="M242.925 370.892C244.918 372.358 247.458 374.853 248.325 375.72C248.504 375.9 248.533 376.179 248.396 376.394C248.241 376.638 247.925 376.72 247.674 376.577C246.554 375.942 243.581 374.216 241.736 372.759C240.486 371.772 238.884 370.221 238.146 369.492C237.906 369.256 237.867 368.886 238.048 368.602C238.255 368.277 238.682 368.173 239.013 368.371C239.934 368.919 241.725 370.009 242.925 370.892Z" fill="#E05619"/>
<path d="M280.931 364.871C282.109 366.146 283.422 368.295 283.936 369.167C284.071 369.397 284.04 369.686 283.863 369.885C283.649 370.125 283.288 370.162 283.034 369.966C282.197 369.32 280.398 367.877 279.361 366.636C278.658 365.796 277.847 364.499 277.42 363.791C277.239 363.491 277.279 363.111 277.511 362.85C277.797 362.529 278.282 362.485 278.613 362.758C279.252 363.285 280.267 364.151 280.931 364.871Z" fill="#F0B916"/>
<path d="M65.1335 340.375C42.6375 402.291 74.5899 470.719 136.501 493.213C198.413 515.708 266.838 483.75 289.334 421.833C311.831 359.917 230.208 409.814 168.297 387.32C106.385 364.825 87.6296 278.458 65.1335 340.375Z" fill="#FFAA00"/>
<mask id="mask3_207_398" style="mask-type:alpha" maskUnits="userSpaceOnUse" x="57" y="318" width="237" height="183">
<path d="M65.1335 340.375C42.6375 402.291 74.5899 470.719 136.501 493.213C198.413 515.708 266.838 483.75 289.334 421.833C311.831 359.917 230.208 409.814 168.297 387.32C106.385 364.825 87.6296 278.458 65.1335 340.375Z" fill="#FFC648"/>
</mask>
<g mask="url(#mask3_207_398)">
<path d="M104.99 310.601C66.554 364.102 78.7622 438.631 132.258 477.067C185.753 515.502 272.507 492.472 310.943 438.971C349.379 385.47 251.836 396.504 198.34 358.068C144.845 319.633 143.426 257.101 104.99 310.601Z" fill="#FFC648"/>
</g>
</g>
<path d="M141.738 150.579L141.015 148.576C139.405 144.109 141.411 139.12 145.686 136.944C152.427 133.514 160.258 138.871 159.387 146.328L166.561 148.893C168.525 149.595 170.156 150.99 171.147 152.814C174.046 158.149 170.513 164.737 164.418 165.362L160.387 165.775L161.791 174.573C162.479 178.89 159.579 182.993 155.248 183.828C149.983 184.843 145.225 180.619 145.655 175.312L145.869 172.681L139.995 171.827C134.225 170.988 130.417 165.461 131.704 159.793C132.363 156.89 134.285 154.418 136.948 153.046L141.738 150.579Z" stroke="#FBDD81" stroke-width="5.42708"/>
<path d="M165.36 144.773L165.494 145.664C170.508 144.748 175.254 148.141 175.959 153.145L176.284 155.454C177.136 161.504 172.935 167.149 166.852 168.131L164.172 168.563L164.986 173.326C166.035 179.462 161.907 185.332 155.733 186.483C148.264 187.875 141.582 181.799 142.324 174.291L142.671 170.789C135.884 173.139 128.669 168.783 127.677 161.737L127.609 161.253C126.909 156.284 129.471 151.398 133.982 149.095L137.862 147.114C136.587 141.882 139.636 136.536 144.824 134.907L147.848 133.958C155.829 131.453 164.126 136.577 165.36 144.773Z" stroke="#FFBC2A" stroke-width="5.42708"/>
<path d="M349.639 76.3799L343.79 81.2567C342.236 82.5532 339.894 81.4602 339.915 79.4472C339.94 76.955 338.993 74.5681 337.186 72.8711C331.638 67.6594 319.153 56.8403 312.909 58.6713C309.655 59.6256 308.277 64.1071 307.81 66.1511C307.677 66.7326 307.163 67.1682 306.568 67.1633C305.95 67.1582 305.449 66.6769 305.453 66.0587C305.471 63.129 305.978 55.2749 310.855 54.3819C319.96 52.7149 332.716 63.2255 338.912 68.9925C341.279 71.1961 344.489 72.3374 347.718 71.9122C350.243 71.5799 351.603 74.7426 349.639 76.3799Z" fill="#7FB323"/>
<path d="M341.83 81.6008L350.966 72.724C355.48 72.762 359.99 73.6015 363.618 76.247C372.437 82.6774 388.721 99.5084 394.076 138.319C400.423 184.326 390.974 204.873 380.089 213.946C377.481 216.12 374.906 210.054 376.663 207.151C382.601 197.339 386.424 180.458 381.443 151.43C377.516 128.546 355.099 102.064 345.778 91.8711C343.216 89.0701 341.755 85.4168 341.83 81.6008Z" fill="#E22122"/>
<ellipse opacity="0.2" rx="16.1775" ry="4.66253" transform="matrix(0.610153 0.786222 0.794457 -0.615136 362.661 100.199)" fill="white"/>
<ellipse opacity="0.2" rx="7.28507" ry="1.68426" transform="matrix(0.299789 0.950904 0.954463 -0.308044 377.912 124.57)" fill="white"/>
<path d="M278.375 168.167L249.656 196.625C245.555 200.689 243.287 206.134 243.457 211.337C243.632 216.657 246.388 221.671 252.074 224.249C257.848 226.867 265.144 228.651 273.527 227.491C281.924 226.33 291.138 222.253 300.788 213.596C315.075 200.78 313.286 184.439 308.812 172.526C306.395 166.088 301.019 162.583 295.116 161.969C289.304 161.365 283.041 163.544 278.375 168.167Z" fill="#FF9193" stroke="#E94748" stroke-width="6.34746"/>
<path d="M286.4 172.95L255.449 201.952C251.279 205.859 251.563 212.41 256.817 214.569C265.588 218.173 279.475 220.263 293.287 207.508C308.126 193.803 303.292 180.794 298.146 173.412C295.408 169.484 289.931 169.642 286.4 172.95Z" fill="#E94748"/>
<path d="M288.41 177.062L281.9 183.472C281.629 183.739 281.565 184.151 281.744 184.483C281.962 184.889 282.467 185.045 282.883 184.837L291.057 180.738C292.171 180.179 292.65 178.849 292.14 177.726C291.48 176.272 289.559 175.93 288.41 177.062Z" fill="#FF9193"/>
<path d="M287.308 200.742L280.121 194.272C279.83 194.01 279.391 193.993 279.075 194.231C278.72 194.498 278.64 194.995 278.894 195.354L284.48 203.236C285.017 203.993 286.036 204.24 286.874 203.816C288.062 203.215 288.287 201.623 287.308 200.742Z" fill="#FF9193"/>
<path d="M278.078 205.041L272.828 196.921C272.616 196.592 272.197 196.462 271.831 196.611C271.42 196.779 271.214 197.239 271.366 197.652L274.708 206.727C275.029 207.6 275.947 208.101 276.865 207.906C278.164 207.63 278.793 206.147 278.078 205.041Z" fill="#FF9193"/>
<path d="M266.017 207.699L266.264 200.605C266.272 200.362 266.127 200.142 265.902 200.055C265.578 199.929 265.214 200.118 265.13 200.457L263.404 207.357C263.264 207.919 263.503 208.503 263.996 208.801C264.862 209.324 265.982 208.714 266.017 207.699Z" fill="#FF9193"/>
<path d="M292.489 187.556L282.973 187.921C282.585 187.936 282.258 188.217 282.185 188.598C282.1 189.039 282.383 189.464 282.823 189.555L292.129 191.474C293.135 191.681 294.14 191.085 294.443 190.102C294.844 188.801 293.849 187.504 292.489 187.556Z" fill="#FF9193"/>
<g opacity="0.56" filter="url(#filter0_f_207_398)">
<path d="M80.0917 96.1534L75.0959 92.4263C73.338 91.1148 74.1863 88.0885 76.2873 87.4495C78.8843 86.6596 81.3882 85.3184 81.8507 83.0553C83.3877 75.5349 66.7482 51.081 43.4391 75.6926C20.13 100.304 47.4184 117.276 52.0034 112.791C53.5341 111.293 54.5005 108.949 55.1106 106.616C55.6982 104.368 59.1444 103.501 60.4358 105.445L64.1007 110.962C67.9308 116.728 76.1077 117.648 81.1254 112.878C86.0584 108.189 85.567 100.238 80.0917 96.1534Z" fill="#E8D29E"/>
<ellipse rx="4.14966" ry="6.76951" transform="matrix(0.52012 -0.849792 0.860709 0.516268 70.6455 85.3408)" fill="#BEAB7B"/>
<ellipse rx="4.16039" ry="6.75239" transform="matrix(-0.778243 0.624279 0.636503 0.774306 52.8069 102.468)" fill="#BEAB7B"/>
</g>
<path d="M417.18 416.377L419.326 412.449C420.083 411.064 418.639 409.292 417.083 409.473C415.155 409.698 413.122 409.529 412.149 408.149C408.919 403.572 412.508 382.434 434.978 392.129C457.449 401.823 444.709 421.044 440.395 419.375C438.95 418.815 437.622 417.523 436.531 416.136C435.487 414.808 432.993 415.231 432.729 416.9L431.981 421.62C431.193 426.59 426.131 429.583 421.447 427.847C416.85 426.144 414.822 420.693 417.18 416.377Z" fill="#E8D29E"/>
<ellipse rx="3.00006" ry="4.88114" transform="matrix(-0.817427 -0.577354 -0.565517 0.823818 420.147 406.449)" fill="#BEAB7B"/>
<ellipse rx="2.98927" ry="4.89935" transform="matrix(0.96441 0.266245 -0.256184 0.966136 436.785 412.685)" fill="#BEAB7B"/>
<path d="M54.5071 182.992C54.5193 178.38 49.9364 177.925 46.2726 175.059C42.8865 172.411 45.1166 166.595 36.4849 168.844C30.8422 170.315 32.5975 178.716 37.2463 184.704C40.4581 188.841 47.9103 191.704 50.9137 189.407C53.2015 187.657 54.4996 185.864 54.5071 182.992Z" fill="#A84B6A"/>
<path opacity="0.6" d="M49.3689 182.744C48.6163 181.488 47.0022 181.877 46.2693 180.61C45.0286 178.466 51.5977 179.778 52.471 182.092C53.2868 184.254 51.2033 188.699 49.4618 187.163C48.1569 186.013 50.2606 184.232 49.3689 182.744Z" fill="white"/>
<path d="M46.1331 174.414C45.4412 173.411 44.8299 172.582 44.123 171.59C42.9264 169.909 41.7124 175.12 43.1595 176.598C44.5111 177.979 49.5326 179.189 48.9619 177.371C48.5341 176.01 46.9528 175.602 46.1331 174.414Z" fill="#722D44"/>
<path d="M398.762 329.265C394.26 328.063 392.67 332.343 388.954 335.119C385.521 337.685 380.399 334.044 380.437 342.907C380.462 348.701 389.107 349.185 396.118 346.27C400.962 344.256 405.621 337.844 404.128 334.369C402.991 331.722 401.566 330.014 398.762 329.265Z" fill="#A84B6A"/>
<path opacity="0.6" d="M397.266 334.137C395.85 334.535 395.827 336.186 394.405 336.563C391.999 337.2 394.925 331.231 397.405 330.99C399.721 330.765 403.543 333.913 401.607 335.189C400.157 336.145 398.943 333.665 397.266 334.137Z" fill="white"/>
<path d="M388.285 335.105C387.13 335.509 386.166 335.881 385.017 336.302C383.072 337.014 387.871 339.524 389.68 338.519C391.37 337.581 393.811 333.08 391.888 333.158C390.448 333.216 389.653 334.626 388.285 335.105Z" fill="#722D44"/>
<g opacity="0.56" filter="url(#filter1_f_207_398)">
<ellipse rx="15.5287" ry="12.0195" transform="matrix(-0.31217 -0.949944 -0.95216 0.305852 460.413 138.005)" fill="#47486C"/>
<ellipse rx="4.2771" ry="3.24199" transform="matrix(-0.990337 0.138951 0.141936 0.989837 465.051 149.422)" fill="#141529"/>
<ellipse opacity="0.1" rx="6.07118" ry="3.27837" transform="matrix(0.215425 0.976463 0.977567 -0.210884 468.157 136.027)" fill="white"/>
<path d="M452.682 125.01C452.682 125.01 451.137 122.411 452.729 119.839" stroke="black" stroke-width="3.17373" stroke-linecap="round"/>
</g>
<g filter="url(#filter2_f_207_398)">
<ellipse rx="10.1109" ry="7.73922" transform="matrix(0.792434 -0.606418 -0.618546 -0.788529 463.156 21.5868)" fill="#47486C"/>
<ellipse rx="2.74748" ry="2.11277" transform="matrix(-0.472558 -0.882523 -0.885926 0.46156 457.135 26.8774)" fill="#141529"/>
<ellipse opacity="0.1" rx="3.95916" ry="2.10974" transform="matrix(-0.849105 0.525296 0.536824 0.845561 466.069 25.8158)" fill="white"/>
<path d="M469.474 14.0859C469.474 14.0859 470.733 12.5812 472.669 12.9845" stroke="black" stroke-width="2.0542" stroke-linecap="round"/>
</g>
<g filter="url(#filter3_f_207_398)">
<path d="M475.899 250.02C474.941 251.373 474.603 254.076 474.603 254.076C474.603 254.076 478.932 259.121 481.022 262.797C482.826 265.971 484.589 270.988 485.212 272.835C485.354 273.257 485.187 273.714 484.812 273.95C484.216 274.326 483.417 273.971 483.281 273.277C482.801 270.833 481.685 265.915 479.99 263.007C478.236 259.997 474.066 256.623 474.066 256.623C474.066 256.623 472.73 256.546 471.743 257.095C468.957 258.644 470.811 265.412 470.811 265.412L468.549 262.35C468.549 262.35 468.233 264.968 467.198 266.146C466.468 266.977 464.838 267.709 464.838 267.709L464.425 259.394C464.425 259.394 464.146 262.141 463.13 263.45C462.425 264.358 460.824 265.273 460.824 265.273L459.298 263.144L456.421 264.812L459.616 259.557L454.527 262.216L455.213 259.097L451.216 258.012L455.603 257.121L453.154 255.722L456.766 254.988L461.186 256.8L458.572 254.622L462.997 252.639C462.997 252.639 464.343 255.098 465.83 255.857C468.321 257.128 472.797 254.442 472.797 254.442L465.693 248.841C465.693 248.841 462.681 248.918 461.048 249.784C459.161 250.785 457.321 253.792 457.321 253.792L455.888 250.832L453.324 252.707L453.955 249.328L451.561 248.188C452.573 247.388 451.954 245.757 450.659 245.812L449.722 245.852L450.776 243.487C451.024 242.929 450.933 242.276 450.54 241.802L448.294 239.098L449.223 239.646C450.232 240.241 451.514 239.609 451.644 238.451L451.648 238.416L451.878 238.708C452.368 239.33 453.36 238.874 453.196 238.102L455.941 238.358L459.785 243.809L458.192 236.275L459.647 236.792L460.772 235.751L461.05 237.064C461.274 238.125 462.618 238.482 463.331 237.67L465.308 247.022L472.248 251.845L472.418 248.83L466.527 245.149C467.509 244.373 467.585 242.911 466.689 242.024L465.648 240.993L471.21 243.114L466.943 236.936L467.496 237.108C468.672 237.472 469.801 236.449 469.547 235.249L469.287 234.022L470.275 234.762C471.089 235.373 472.255 235.097 472.696 234.188L473.158 233.236L473.246 234.336C473.37 235.896 475.431 236.389 476.232 235.05L477.869 237.698C477.869 237.698 475.145 240.207 475.08 242.329C475.048 243.363 475.629 244.926 475.629 244.926C475.629 244.926 477.152 243.796 477.88 242.844C478.68 241.798 479.395 239.827 479.395 239.827L479.944 242.425L481.306 243.774C481.306 243.774 479.958 243.792 479.242 244.193C478.289 244.726 477.562 246.431 477.562 246.431L480.933 247.101C480.933 247.101 477.213 248.162 475.899 250.02Z" fill="#03922E"/>
</g>
<path d="M181.245 35.637C178.678 39.401 186.197 61.5996 186.197 61.5996C190.16 58.9329 192.924 49.9957 198.11 46.351C204.318 41.9873 211.944 45.0556 212.961 42.298C213.47 40.9192 207.652 36.107 204.679 33.8733C204.679 33.8733 223.064 38.9602 226.506 31.1443C228.961 25.5679 220.849 20.9273 220.849 20.9273C220.849 20.9273 242.456 17.7294 240.778 7.37481C239.101 -2.97976 204.924 10.8614 203.499 14.7219C202.074 18.5825 204.459 9.99277 198.144 10.0753C191.828 10.1578 188.347 36.6163 188.347 36.6163C188.347 36.6163 183.272 32.6661 181.245 35.637Z" fill="#86DC0E"/>
<path d="M204.42 27.3285C204.42 27.3285 208.685 32.6025 218.825 26.4543" stroke="#74BC00" stroke-width="2.24712" stroke-linecap="round"/>
<path d="M198.245 33.6232C198.245 33.6232 194.312 27.8103 199 19.3514" stroke="#74BC00" stroke-width="2.24712" stroke-linecap="round"/>
<path d="M186.42 60.6657C186.42 60.6657 195.874 27.9754 218.821 13.582" stroke="#74BC00" stroke-width="2.24712" stroke-linecap="round"/>
<defs>
<filter id="filter0_f_207_398" x="28.2879" y="59.1259" width="62.0945" height="62.6661" filterUnits="userSpaceOnUse" color-interpolation-filters="sRGB">
<feFlood flood-opacity="0" result="BackgroundImageFix"/>
<feBlend mode="normal" in="SourceGraphic" in2="BackgroundImageFix" result="shape"/>
<feGaussianBlur stdDeviation="2.92493" result="effect1_foregroundBlur_207_398"/>
</filter>
<filter id="filter1_f_207_398" x="442.131" y="112.402" width="36.5638" height="46.6586" filterUnits="userSpaceOnUse" color-interpolation-filters="sRGB">
<feFlood flood-opacity="0" result="BackgroundImageFix"/>
<feBlend mode="normal" in="SourceGraphic" in2="BackgroundImageFix" result="shape"/>
<feGaussianBlur stdDeviation="2.92493" result="effect1_foregroundBlur_207_398"/>
</filter>
<filter id="filter2_f_207_398" x="442.122" y="0.191535" width="43.2765" height="41.7457" filterUnits="userSpaceOnUse" color-interpolation-filters="sRGB">
<feFlood flood-opacity="0" result="BackgroundImageFix"/>
<feBlend mode="normal" in="SourceGraphic" in2="BackgroundImageFix" result="shape"/>
<feGaussianBlur stdDeviation="5.84985" result="effect1_foregroundBlur_207_398"/>
</filter>
<filter id="filter3_f_207_398" x="438.057" y="222.999" width="57.4427" height="61.3411" filterUnits="userSpaceOnUse" color-interpolation-filters="sRGB">
<feFlood flood-opacity="0" result="BackgroundImageFix"/>
<feBlend mode="normal" in="SourceGraphic" in2="BackgroundImageFix" result="shape"/>
<feGaussianBlur stdDeviation="5.11862" result="effect1_foregroundBlur_207_398"/>
</filter>
</defs>
</svg>
