<svg width="48" height="48" viewBox="0 0 48 48" fill="none" xmlns="http://www.w3.org/2000/svg">
<path d="M11.75 29.3948H3.71057" stroke="#F27E24" stroke-width="2" stroke-linecap="round"/>
<path d="M16.6973 34.342H7.42102" stroke="#F27E24" stroke-width="2" stroke-linecap="round"/>
<path d="M12.9868 39.2896H1" stroke="#F27E24" stroke-width="2" stroke-linecap="round"/>
<path d="M44.0214 5.5226C43.9165 5.11436 43.5925 4.80122 43.187 4.69452C42.7721 4.59014 42.3409 4.71308 42.0472 5.01462C42.0263 5.03318 40.1197 6.95377 33.7545 9.38236C31.5077 10.2383 29.8738 11.862 29.1513 13.9519C28.6339 15.455 28.3961 17.8163 29.8808 20.8874H30.6686C30.7432 20.79 30.8224 20.6949 30.9297 20.623C30.96 20.6021 33.9246 18.5748 35.7869 14.5967C36.0596 14.0168 36.7518 13.771 37.3368 14.0354C37.9195 14.3068 38.1712 14.998 37.8985 15.5779C36.7751 17.9763 35.3254 19.7323 34.167 20.8874H40.8003C41.714 20.1451 42.6113 19.2034 43.441 17.9462C43.4643 17.9137 43.4853 17.8789 43.5016 17.8418C45.9419 13.147 44.1006 5.83111 44.0214 5.5226Z" fill="#59AA47"/>
<path d="M25.823 16.4313C25.2963 14.9004 24.1053 13.7151 22.4714 13.0911C18.2481 11.4814 16.9662 10.2149 16.9662 10.2149C16.6749 9.90173 16.2414 9.77184 15.8242 9.87622C15.4093 9.9806 15.0853 10.3007 14.9804 10.7136C14.9245 10.9293 13.6379 16.0463 15.3627 19.3702C15.3813 19.405 15.4023 19.4398 15.4233 19.4746C15.7869 20.0243 16.1761 20.4766 16.5747 20.8872H21.2338C20.4437 20.022 19.6116 18.9364 19.1967 17.8068C18.9753 17.206 19.283 16.5403 19.889 16.32C20.4996 16.0996 21.1615 16.4081 21.3853 17.0089C21.9447 18.5328 23.8559 20.2957 24.5458 20.8454C24.5598 20.857 24.5667 20.8756 24.5807 20.8872H25.5433C26.3288 18.9504 26.168 17.4287 25.823 16.4313Z" fill="#59AA47"/>
<path d="M9.89478 24.4434C10.3726 31.068 14.8359 36.9133 21.4552 39.4115V41.8401C21.4552 42.4803 21.9773 42.9999 22.6206 42.9999H34.2742C34.9175 42.9999 35.4396 42.4803 35.4396 41.8401V39.4115C42.0589 36.9133 46.5199 31.068 47 24.4434H9.89478Z" fill="#F27E24"/>
</svg>
