<svg width="53" height="57" viewBox="0 0 53 57" fill="none" xmlns="http://www.w3.org/2000/svg">
<path d="M39.1266 18.8646C39.0217 18.4564 38.6978 18.1433 38.2922 18.0366C37.8773 17.9322 37.4461 18.0551 37.1525 18.3567C37.1315 18.3752 35.225 20.2958 28.8597 22.7244C26.6129 23.5803 24.9791 25.204 24.2565 27.2939C23.7391 28.797 23.5014 31.1583 24.986 34.2294H25.7738C25.8484 34.132 25.9277 34.0369 26.0349 33.965C26.0652 33.9441 29.0299 31.9168 30.8921 27.9388C31.1648 27.3589 31.857 27.113 32.4421 27.3774C33.0247 27.6488 33.2765 28.3401 33.0038 28.92C31.8804 31.3184 30.4306 33.0743 29.2723 34.2294H35.9055C36.8192 33.4872 37.7165 32.5454 38.5463 31.2882C38.5696 31.2558 38.5905 31.221 38.6068 31.1839C41.0471 26.4891 39.2058 19.1731 39.1266 18.8646Z" fill="#59AA47"/>
<path d="M20.9282 29.7733C20.4015 28.2424 19.2105 27.0571 17.5766 26.4332C13.3534 24.8234 12.0715 23.5569 12.0715 23.5569C11.7801 23.2438 11.3466 23.1139 10.9294 23.2183C10.5145 23.3226 10.1906 23.6427 10.0857 24.0556C10.0297 24.2713 8.74317 29.3883 10.4679 32.7122C10.4866 32.747 10.5075 32.7818 10.5285 32.8166C10.8921 33.3664 11.2813 33.8187 11.6799 34.2292H16.339C15.5489 33.364 14.7168 32.2785 14.302 31.1488C14.0805 30.5481 14.3882 29.8824 14.9942 29.662C15.6048 29.4416 16.2668 29.7502 16.4905 30.3509C17.0499 31.8749 18.9611 33.6377 19.651 34.1875C19.665 34.1991 19.672 34.2176 19.686 34.2292H20.6485C21.434 32.2924 21.2732 30.7708 20.9282 29.7733Z" fill="#59AA47"/>
<path d="M5 37.7854C5.4778 44.4101 9.94115 50.2554 16.5604 52.7535V55.1821C16.5604 55.8223 17.0825 56.3419 17.7258 56.3419H29.3795C30.0227 56.3419 30.5448 55.8223 30.5448 55.1821V52.7535C37.1641 50.2554 41.6251 44.4101 42.1053 37.7854H5Z" fill="#F27E24"/>
<circle cx="20" cy="15" r="2" fill="#F27E24"/>
<circle cx="51" cy="19" r="0.5" fill="#F27E24" stroke="#F27E24"/>
<circle cx="1" cy="29" r="1" fill="#F27E24"/>
<path d="M32.5 1V10" stroke="#F27E24" stroke-linecap="round"/>
<path d="M6 8V14" stroke="#F27E24" stroke-linecap="round"/>
<path d="M49.5 23V28" stroke="#F27E24" stroke-linecap="round"/>
<path d="M37 5.5L28 5.5" stroke="#F27E24" stroke-linecap="round"/>
<path d="M9 11L3 11" stroke="#F27E24" stroke-linecap="round"/>
<path d="M52 25.5L47 25.5" stroke="#F27E24" stroke-linecap="round"/>
</svg>
