<svg width="52" height="31" viewBox="0 0 52 31" fill="none" xmlns="http://www.w3.org/2000/svg">
<path d="M0 27H52V27C52 29.2091 50.2091 31 48 31H4C1.79086 31 0 29.2091 0 27V27Z" fill="#F27E24"/>
<circle cx="26" cy="3" r="3" fill="#59AA47"/>
<path d="M26 4C13.2975 4 3 14.2975 3 27H49C49 14.2975 38.7025 4 26 4Z" fill="#59AA47"/>
<path fill-rule="evenodd" clip-rule="evenodd" d="M21.0553 22.4089C20.706 22.4148 20.3666 22.2977 20.1015 22.0799C19.8364 21.862 19.664 21.5586 19.6172 21.2271L19.6172 17.0909C19.664 16.7594 19.8364 16.4559 20.1015 16.2381C20.3666 16.0202 20.706 15.9032 21.0553 15.9091L21.4688 15.9091L21.4688 22.4088L21.0553 22.4089ZM27.641 12.3636L27.641 14.7271L31.1344 14.7271C31.3133 14.7252 31.4906 14.7605 31.6538 14.8307C31.8171 14.9008 31.9624 15.0041 32.0799 15.1334C32.1973 15.2627 32.2839 15.4148 32.3338 15.5794C32.3837 15.7439 32.3957 15.9168 32.3688 16.0862L31.5171 21.4042C31.4724 21.686 31.3229 21.9429 31.0961 22.1275C30.8692 22.3121 30.5803 22.412 30.2826 22.4087L23.6291 22.4087L23.6291 15.9089L25.7893 10.5909C26.2804 10.5909 26.7514 10.7777 27.0986 11.1101C27.4459 11.4425 27.641 11.8934 27.641 12.3636Z" fill="white"/>
<path fill-rule="evenodd" clip-rule="evenodd" d="M21.0603 22.9998C20.5619 23.0069 20.0778 22.8392 19.6995 22.5282C19.3196 22.2161 19.0727 21.7813 19.0056 21.3063C19.0019 21.2801 19 21.2536 19 21.2271L19 17.0909C19 17.0644 19.0019 17.0379 19.0056 17.0117C19.0727 16.5367 19.3196 16.1019 19.6995 15.7897C20.0778 15.4788 20.5618 15.3111 21.0603 15.3182L21.4688 15.3182C21.8097 15.3182 22.0861 15.5827 22.0861 15.9091L22.0861 22.4088C22.0861 22.7351 21.8098 22.9996 21.469 22.9997L21.0603 22.9998ZM20.8516 16.5188C20.724 16.5465 20.6043 16.6036 20.5035 16.6865C20.3622 16.8026 20.2674 16.9615 20.2344 17.1363L20.2344 21.1817C20.2674 21.3564 20.3622 21.5154 20.5035 21.6315C20.6043 21.7143 20.724 21.7715 20.8516 21.7991L20.8516 16.5188ZM30.2795 22.9996L23.6291 22.9996C23.2882 22.9996 23.0119 22.7351 23.0119 22.4087L23.0119 15.9089C23.0119 15.8357 23.0261 15.763 23.0538 15.6948L25.2141 10.3767C25.3063 10.1496 25.5348 10 25.7893 10C26.4441 10 27.0721 10.249 27.5351 10.6923C27.9981 11.1355 28.2582 11.7367 28.2582 12.3636L28.2582 14.1362L31.1312 14.1362C31.3983 14.1339 31.6628 14.1869 31.9065 14.2916C32.1514 14.3968 32.3695 14.5517 32.5456 14.7457C32.7218 14.9396 32.8517 15.1678 32.9266 15.4146C33.0014 15.6614 33.0193 15.9208 32.979 16.1749L32.1273 21.4928V21.4928C32.0602 21.9153 31.8359 22.3009 31.4958 22.5777C31.1565 22.8538 30.7247 23.0036 30.2795 22.9996ZM30.2896 21.8179C30.4385 21.8195 30.5829 21.7696 30.6963 21.6773C30.8097 21.585 30.8845 21.4565 30.9068 21.3156L31.7586 15.9975V15.9975C31.7719 15.913 31.766 15.8262 31.7411 15.7441C31.7162 15.6618 31.6728 15.5858 31.6141 15.5211C31.5554 15.4565 31.4827 15.4048 31.4011 15.3698C31.3195 15.3347 31.2308 15.317 31.1414 15.318L31.1344 15.3181L27.641 15.318C27.3001 15.318 27.0238 15.0535 27.0238 14.7271L27.0238 12.3636C27.0238 12.0501 26.8937 11.7495 26.6622 11.5279C26.527 11.3985 26.3637 11.3022 26.1861 11.2445L24.2463 16.0198L24.2463 21.8179L30.2896 21.8179Z" fill="white"/>
</svg>
