<svg width="49" height="48" viewBox="0 0 49 48" fill="none" xmlns="http://www.w3.org/2000/svg">
<path d="M12.25 29.3948H4.21057" stroke="#F27E24" stroke-width="2" stroke-linecap="round"/>
<path d="M17.1973 34.342H7.92102" stroke="#F27E24" stroke-width="2" stroke-linecap="round"/>
<path d="M13.4868 39.2896H1.5" stroke="#F27E24" stroke-width="2" stroke-linecap="round"/>
<path d="M44.5214 5.5226C44.4165 5.11436 44.0925 4.80122 43.687 4.69452C43.2721 4.59014 42.8409 4.71308 42.5472 5.01462C42.5263 5.03318 40.6197 6.95377 34.2545 9.38236C32.0077 10.2383 30.3738 11.862 29.6513 13.9519C29.1339 15.455 28.8961 17.8163 30.3808 20.8874H31.1686C31.2432 20.79 31.3224 20.6949 31.4297 20.623C31.46 20.6021 34.4246 18.5748 36.2869 14.5967C36.5596 14.0168 37.2518 13.771 37.8368 14.0354C38.4195 14.3068 38.6712 14.998 38.3985 15.5779C37.2751 17.9763 35.8254 19.7323 34.667 20.8874H41.3003C42.214 20.1451 43.1113 19.2034 43.941 17.9462C43.9643 17.9137 43.9853 17.8789 44.0016 17.8418C46.4419 13.147 44.6006 5.83111 44.5214 5.5226Z" fill="#59AA47"/>
<path d="M26.323 16.4313C25.7963 14.9004 24.6053 13.7151 22.9714 13.0911C18.7481 11.4814 17.4662 10.2149 17.4662 10.2149C17.1749 9.90173 16.7414 9.77184 16.3242 9.87622C15.9093 9.9806 15.5853 10.3007 15.4804 10.7136C15.4245 10.9293 14.1379 16.0463 15.8627 19.3702C15.8813 19.405 15.9023 19.4398 15.9233 19.4746C16.2869 20.0243 16.6761 20.4766 17.0747 20.8872H21.7338C20.9437 20.022 20.1116 18.9364 19.6967 17.8068C19.4753 17.206 19.783 16.5403 20.389 16.32C20.9996 16.0996 21.6615 16.4081 21.8853 17.0089C22.4447 18.5328 24.3559 20.2957 25.0458 20.8454C25.0598 20.857 25.0667 20.8756 25.0807 20.8872H26.0433C26.8288 18.9504 26.668 17.4287 26.323 16.4313Z" fill="#59AA47"/>
<path d="M10.3948 24.4434C10.8726 31.068 15.3359 36.9133 21.9552 39.4115V41.8401C21.9552 42.4803 22.4773 42.9999 23.1206 42.9999H34.7742C35.4175 42.9999 35.9396 42.4803 35.9396 41.8401V39.4115C42.5589 36.9133 47.0199 31.068 47.5 24.4434H10.3948Z" fill="#F27E24"/>
</svg>
